<?xml version="1.0" standalone="no"?>
  <!DOCTYPE svg PUBLIC "-//W3C//DTD SVG 1.1//EN" "http://www.w3.org/Graphics/SVG/1.1/DTD/svg11.dtd" >
  <svg>
  <metadata>
  Created by font-carrier
  </metadata>
  <defs>
  <font id="Poppins-Medium" horiz-adv-x="2518" vert-adv-y="2518" >
    <font-face
      
      font-family="Poppins Medium"
      
      font-weight="400"
      
      font-stretch="normal"
      
      units-per-em="1000"
      
      ascent="1050"
      
      descent="-350"
      
    />
      <missing-glyph />

      

      
      <glyph glyph-name="uni0905" unicode="&#x0905;" d="M854 740L854 652L732 652L732 0L628 0L628 308L490 309Q500 280 500 248Q500 161 444 108Q388 55 296 55Q230 55 178.50 81Q127 107 98.50 153.50Q70 200 70 260L168 260Q168 210 201.50 177.50Q235 145 289 145Q342 145 373 176Q404 207 404 258Q404 287 393 309L391 309L391 314Q359 371 278 371L237 371L237 456L278 456Q333 456 363.50 485.50Q394 515 394 556Q394 603 363.50 631.50Q333 660 287 660Q239 660 206.50 632.50Q174 605 174 559L77 559Q77 616 103.50 659Q130 702 178 725.50Q226 749 287 749Q377 749 432.50 700Q488 651 488 570Q488 513 458 472.50Q428 432 371 417L371 415Q399 409 423 395L628 395L628 740L854 740Z"  horiz-adv-x="831" vert-adv-y="1000"  />

      
      <glyph glyph-name="uni0906" unicode="&#x0906;" d="M1156 652L1034 652L1034 0L929 0L929 652L732 652L732 0L628 0L628 308L490 309Q500 280 500 248Q500 161 444 108Q388 55 296 55Q230 55 178.50 81Q127 107 98.50 153.50Q70 200 70 260L168 260Q168 210 201.50 177.50Q235 145 289 145Q342 145 373 176Q404 207 404 258Q404 287 393 309L391 309L391 314Q359 371 278 371L237 371L237 456L278 456Q333 456 363.50 485.50Q394 515 394 556Q394 603 363.50 631.50Q333 660 287 660Q239 660 206.50 632.50Q174 605 174 559L77 559Q77 616 103.50 659Q130 702 178 725.50Q226 749 287 749Q377 749 432.50 700Q488 651 488 570Q488 513 458 472.50Q428 432 371 417L371 415Q399 409 423 395L628 395L628 740L1156 740L1156 652Z"  horiz-adv-x="1126" vert-adv-y="1000"  />

      
      <glyph glyph-name="uni0907" unicode="&#x0907;" d="M287 470Q242 470 211.50 454Q181 438 181 397Q181 360 207.50 343Q234 326 276 326L320 326Q408 326 467 285Q526 244 526 152Q526 79 479 32Q432-15 348-15Q285-15 245.50 11Q206 37 190 66L190-79L91-79L91 177L185 177Q190 126 225 95Q260 64 319 64Q371 64 398.50 90Q426 116 426 155Q426 206 391 228.50Q356 251 301 251L245 251Q174 254 125 290Q76 326 76 398Q76 474 128 510Q180 546 259 546L365 546L365 652L-32 652L-32 740L612 740L612 652L466 652L466 470L287 470Z"  horiz-adv-x="580" vert-adv-y="1000"  />

      
      <glyph glyph-name="uni0908" unicode="&#x0908;" d="M542 1011Q625 1011 670 962Q715 913 712 832L620 832Q622 873 601 898Q580 923 544 923Q464 923 464 812L464 740L612 740L612 652L466 652L466 470L287 470Q242 470 211.50 454Q181 438 181 397Q181 360 207.50 343Q234 326 276 326L320 326Q408 326 467 285Q526 244 526 152Q526 79 479 32Q432-15 348-15Q285-15 245.50 11Q206 37 190 66L190-79L91-79L91 177L185 177Q190 126 225 95Q260 64 319 64Q371 64 398.50 90Q426 116 426 155Q426 206 391 228.50Q356 251 301 251L245 251Q174 254 125 290Q76 326 76 398Q76 474 128 510Q180 546 259 546L365 546L365 652L-32 652L-32 740L366 740L366 811Q366 900 408.50 955.50Q451 1011 542 1011Z"  horiz-adv-x="580" vert-adv-y="1000"  />

      
      <glyph glyph-name="uni0909" unicode="&#x0909;" d="M484 561Q484 500 455 459.50Q426 419 379 410L379 408Q440 394 476.50 341.50Q513 289 513 219Q513 156 486.50 107Q460 58 410 30.50Q360 3 291 3Q221 3 165.50 31.50Q110 60 79 111.50Q48 163 48 230L148 230Q148 173 187.50 135Q227 97 286 97Q344 97 379 133Q414 169 414 227Q414 281 380 320.50Q346 360 279 360L229 360L229 452L265 452Q322 452 352.50 483Q383 514 383 567L383 652L-24 652L-24 740L596 740L596 652L484 652L484 561Z"  horiz-adv-x="572" vert-adv-y="1000"  />

      
      <glyph glyph-name="uni090A" unicode="&#x090A;" d="M484 561Q484 500 455 459.50Q426 419 379 410L379 408L578 408Q683 408 746.50 359.50Q810 311 810 211Q810 121 757 73Q704 25 617 25Q601 25 567 29L567 109Q578 108 600 108Q649 108 679 134Q709 160 709 215Q709 271 673 297.50Q637 324 579 324L484 324Q512 276 512 214Q512 153 485.50 105Q459 57 409 30Q359 3 291 3Q221 3 165.50 31.50Q110 60 79 111.50Q48 163 48 230L148 230Q148 173 187.50 135Q227 97 286 97Q344 97 379 133Q414 169 414 227Q414 281 380 320.50Q346 360 279 360L229 360L229 452L265 452Q322 452 352.50 483Q383 514 383 567L383 652L-24 652L-24 740L884 740L884 652L484 652L484 561Z"  horiz-adv-x="861" vert-adv-y="1000"  />

      
      <glyph glyph-name="uni090B" unicode="&#x090B;" d="M589 652L589 442L758 442Q836 442 836 511L836 563L927 563L927 210L906 210Q855 210 827 183.50Q799 157 799 115Q799 67 829.50 44.50Q860 22 909 22Q936 22 966 30L966-54Q930-62 895-62Q809-62 753.50-18.50Q698 25 698 106Q698 170 735 213Q772 256 836 270L836 378Q794 358 743 358L589 358L589 0L492 0L492 244L244 0L112 0L112 6L492 351Q480 403 440 435Q400 467 342 467Q266 467 220 419.50Q174 372 174 293L69 293Q69 371 99 430.50Q129 490 184 523Q239 556 312 556Q432 556 492 467L492 652L-24 652L-24 740L1054 740L1054 652L589 652Z"  horiz-adv-x="1030" vert-adv-y="1000"  />

      
      <glyph glyph-name="uni0960" unicode="&#x0960;" d="M589 652L589 442L758 442Q836 442 836 511L836 563L927 563L927 208L888 208Q850 208 825.50 192.50Q801 177 801 141Q801 107 826.50 91.50Q852 76 892 76L942 76L942-3L894-3Q853-3 826.50-19Q800-35 800-72Q800-107 828-123Q856-139 898-139Q925-139 952-134Q979-129 997-123L997-202Q977-210 945-215.50Q913-221 883-221Q806-221 753-186.50Q700-152 700-82Q700-37 726-6.50Q752 24 793 33L793 36Q751 46 725.50 73.50Q700 101 700 146Q700 205 740 234.50Q780 264 836 267L836 378Q794 358 743 358L589 358L589 0L492 0L492 244L244 0L112 0L112 6L492 351Q480 403 440 435Q400 467 342 467Q266 467 220 419.50Q174 372 174 293L69 293Q69 371 99 430.50Q129 490 184 523Q239 556 312 556Q432 556 492 467L492 652L-24 652L-24 740L1055 740L1055 652L589 652Z"  horiz-adv-x="996" vert-adv-y="1000"  />

      
      <glyph glyph-name="uni090C" unicode="&#x090C;" d="M687 652L687 535Q756 517 796.50 458Q837 399 837 308Q837 252 821 208L814 208Q755 208 725 181.50Q695 155 695 112Q695 65 726 42.50Q757 20 806 20Q838 20 864 28L864-56Q830-64 794-64Q705-64 649.50-20Q594 24 594 107Q594 167 632 210.50Q670 254 729 265Q733 284 733 309Q733 370 703 409Q673 448 618 448Q558 448 527.50 403.50Q497 359 497 284L497 263L409 263L409 284Q409 358 380 403Q351 448 293 448Q235 448 203 409Q171 370 171 307Q171 234 209 193Q247 152 315 152L343 154L343 62Q330 61 309 61Q192 61 128.50 128.50Q65 196 65 308Q65 381 92.50 433.50Q120 486 168.50 513.50Q217 541 279 541Q349 541 391.50 502Q434 463 451 404L454 404Q468 452 500 487.50Q532 523 585 536L585 652L-24 652L-24 740L925 740L925 652L687 652Z"  horiz-adv-x="902" vert-adv-y="1000"  />

      
      <glyph glyph-name="uni0961" unicode="&#x0961;" d="M687 652L687 535Q756 517 796.50 458Q837 399 837 308Q837 252 821 208L786 208Q748 208 723.50 192.50Q699 177 699 141Q699 107 724.50 91.50Q750 76 790 76L840 76L840-3L792-3Q751-3 724.50-19Q698-35 698-72Q698-107 726-123Q754-139 796-139Q823-139 851-134Q879-129 895-123L895-202Q875-210 843-215.50Q811-221 781-221Q704-221 651-186.50Q598-152 598-81Q598-37 624-6.50Q650 24 691 33L691 36Q649 46 623.50 73.50Q598 101 598 146Q598 203 636 232.50Q674 262 729 266Q733 285 733 309Q733 370 703 409Q673 448 618 448Q558 448 527.50 403.50Q497 359 497 284L497 263L409 263L409 284Q409 358 380 403Q351 448 293 448Q235 448 203 409Q171 370 171 307Q171 234 209 193Q247 152 315 152L343 154L343 62Q330 61 309 61Q192 61 128.50 128.50Q65 196 65 308Q65 381 92.50 433.50Q120 486 168.50 513.50Q217 541 279 541Q349 541 391.50 502Q434 463 451 404L454 404Q468 452 500 487.50Q532 523 585 536L585 652L-24 652L-24 740L931 740L931 652L687 652Z"  horiz-adv-x="911" vert-adv-y="1000"  />

      
      <glyph glyph-name="uni090F" unicode="&#x090F;" d="M356 437Q363 436 377 436Q425 436 447 463.50Q469 491 469 550L469 652L201 652L201 269Q201 193 237 151Q273 109 340 109Q402 109 437 145.50Q472 182 472 247L575 247Q575 140 512.50 79.50Q450 19 342 19Q221 19 159 87Q97 155 97 272L96 652L-24 652L-24 740L676 740L676 652L571 652L571 547Q571 443 531 391.50Q491 340 400 340Q380 340 356 343L356 437Z"  horiz-adv-x="652" vert-adv-y="1000"  />

      
      <glyph glyph-name="uni0910" unicode="&#x0910;" d="M356 437Q363 436 377 436Q425 436 447 463.50Q469 491 469 550L469 652L201 652L201 269Q201 193 237 151Q273 109 340 109Q402 109 437 145.50Q472 182 472 247L575 247Q575 140 512.50 79.50Q450 19 342 19Q221 19 159 87Q97 155 97 272L96 652L-24 652L-24 740L465 740Q417 815 386.50 848Q356 881 326.50 891Q297 901 246 901L201 901L201 987L244 987Q320 986 364.50 971Q409 956 454.50 904.50Q500 853 565 740L676 740L676 652L571 652L571 547Q571 443 531 391.50Q491 340 400 340Q380 340 356 343L356 437Z"  horiz-adv-x="652" vert-adv-y="1000"  />

      
      <glyph glyph-name="uni0913" unicode="&#x0913;" d="M1156 740L1156 652L1034 652L1034 0L929 0L929 652L732 652L732 0L628 0L628 308L490 309Q500 280 500 248Q500 161 444 108Q388 55 296 55Q230 55 178.50 81Q127 107 98.50 153.50Q70 200 70 260L168 260Q168 210 201.50 177.50Q235 145 289 145Q342 145 373 176Q404 207 404 258Q404 287 393 309L391 309L391 314Q359 371 278 371L237 371L237 456L278 456Q333 456 363.50 485.50Q394 515 394 556Q394 603 363.50 631.50Q333 660 287 660Q239 660 206.50 632.50Q174 605 174 559L77 559Q77 616 103.50 659Q130 702 178 725.50Q226 749 287 749Q377 749 432.50 700Q488 651 488 570Q488 513 458 472.50Q428 432 371 417L371 415Q399 409 423 395L628 395L628 740L928 740Q880 815 849.50 848Q819 881 789.50 891Q760 901 709 901L664 901L664 987L707 987Q783 986 827.50 971Q872 956 917.50 904.50Q963 853 1028 740L1156 740Z"  horiz-adv-x="1132" vert-adv-y="1000"  />

      
      <glyph glyph-name="uni0914" unicode="&#x0914;" d="M1156 740L1156 652L1034 652L1034 0L929 0L929 652L732 652L732 0L628 0L628 308L490 309Q500 280 500 248Q500 161 444 108Q388 55 296 55Q230 55 178.50 81Q127 107 98.50 153.50Q70 200 70 260L168 260Q168 210 201.50 177.50Q235 145 289 145Q342 145 373 176Q404 207 404 258Q404 287 393 309L391 309L391 314Q359 371 278 371L237 371L237 456L278 456Q333 456 363.50 485.50Q394 515 394 556Q394 603 363.50 631.50Q333 660 287 660Q239 660 206.50 632.50Q174 605 174 559L77 559Q77 616 103.50 659Q130 702 178 725.50Q226 749 287 749Q377 749 432.50 700Q488 651 488 570Q488 513 458 472.50Q428 432 371 417L371 415Q399 409 423 395L628 395L628 740L935 740Q876 784 846 801Q816 818 787.50 822.50Q759 827 701 827L655 827L655 894L699 894Q755 894 784 890Q813 886 843 870.50Q873 855 918 819Q876 895 843 930Q810 965 781 973.50Q752 982 703 982L655 982L655 1050L701 1050Q778 1050 818.50 1033Q859 1016 904.50 953Q950 890 1027 740L1156 740Z"  horiz-adv-x="1132" vert-adv-y="1000"  />

      
      <glyph glyph-name="uni090D" unicode="&#x090D;" d="M356 437Q363 436 377 436Q425 436 447 463.50Q469 491 469 550L469 652L201 652L201 269Q201 193 237 151Q273 109 340 109Q402 109 437 145.50Q472 182 472 247L575 247Q575 140 512.50 79.50Q450 19 342 19Q221 19 159 87Q97 155 97 272L96 652L-24 652L-24 740L676 740L676 652L571 652L571 547Q571 443 531 391.50Q491 340 400 340Q380 340 356 343L356 437M542 1018Q542 938 487.50 885Q433 832 328 832Q222 832 168 884.50Q114 937 114 1018L205 1018Q205 973 236 942Q267 911 328 911Q389 911 420.50 942Q452 973 452 1018L542 1018Z"  horiz-adv-x="652" vert-adv-y="1000"  />

      
      <glyph glyph-name="uni0972" unicode="&#x0972;" d="M854 740L854 652L732 652L732 0L628 0L628 308L490 309Q500 280 500 248Q500 161 444 108Q388 55 296 55Q230 55 178.50 81Q127 107 98.50 153.50Q70 200 70 260L168 260Q168 210 201.50 177.50Q235 145 289 145Q342 145 373 176Q404 207 404 258Q404 287 393 309L391 309L391 314Q359 371 278 371L237 371L237 456L278 456Q333 456 363.50 485.50Q394 515 394 556Q394 603 363.50 631.50Q333 660 287 660Q239 660 206.50 632.50Q174 605 174 559L77 559Q77 616 103.50 659Q130 702 178 725.50Q226 749 287 749Q377 749 432.50 700Q488 651 488 570Q488 513 458 472.50Q428 432 371 417L371 415Q399 409 423 395L628 395L628 740L854 740M902 1021Q902 941 847.50 888Q793 835 688 835Q582 835 528 887.50Q474 940 474 1021L565 1021Q565 976 596 945Q627 914 688 914Q749 914 780.50 945Q812 976 812 1021L902 1021Z"  horiz-adv-x="833" vert-adv-y="1000"  />

      
      <glyph glyph-name="uni0911" unicode="&#x0911;" d="M1156 652L1034 652L1034 0L929 0L929 652L732 652L732 0L628 0L628 308L490 309Q500 280 500 248Q500 161 444 108Q388 55 296 55Q230 55 178.50 81Q127 107 98.50 153.50Q70 200 70 260L168 260Q168 210 201.50 177.50Q235 145 289 145Q342 145 373 176Q404 207 404 258Q404 287 393 309L391 309L391 314Q359 371 278 371L237 371L237 456L278 456Q333 456 363.50 485.50Q394 515 394 556Q394 603 363.50 631.50Q333 660 287 660Q239 660 206.50 632.50Q174 605 174 559L77 559Q77 616 103.50 659Q130 702 178 725.50Q226 749 287 749Q377 749 432.50 700Q488 651 488 570Q488 513 458 472.50Q428 432 371 417L371 415Q399 409 423 395L628 395L628 740L1156 740L1156 652M1047 1018Q1047 938 992.50 885Q938 832 833 832Q727 832 673 884.50Q619 937 619 1018L710 1018Q710 973 741 942Q772 911 833 911Q894 911 925.50 942Q957 973 957 1018L1047 1018Z"  horiz-adv-x="1132" vert-adv-y="1000"  />

      
      <glyph glyph-name="uni093E" unicode="&#x093E;" d="M98 0L98 652L-24 652L-24 740L325 740L325 652L203 652L203 0L98 0Z"  horiz-adv-x="301" vert-adv-y="1000"  />

      
      <glyph glyph-name="uni093F" unicode="&#x093F;" d="M492 1006Q602 1006 691.50 974.50Q781 943 833.50 881Q886 819 886 733L886 716L781 716L781 731Q781 797 739 839Q697 881 631 900.50Q565 920 492 920Q373 920 289 878.50Q205 837 202 740L325 740L325 652L203 652L203 0L98 0L98 652L-24 652L-24 740L98 740Q100 828 152.50 887.50Q205 947 293.50 976.50Q382 1006 492 1006Z"  horiz-adv-x="301" vert-adv-y="1000"  />

      
      <glyph glyph-name="uni0940" unicode="&#x0940;" d="M325 740L325 652L203 652L203 0L98 0L98 652L-24 652L-24 740L101 740L101 781Q101 839 79 878.50Q57 918 1 918Q-55 918-78 878.50Q-101 839-101 781L-101 716L-203 716L-203 776Q-203 881-154 943.50Q-105 1006 1 1006Q109 1006 156 944Q203 882 203 776L203 740L325 740Z"  horiz-adv-x="301" vert-adv-y="1000"  />

      
      <glyph glyph-name="uni0941" unicode="&#x0941;" d="M3-135Q3-217-51.50-264Q-106-311-201-311Q-305-311-373.50-257.50Q-442-204-439-95L-346-95Q-349-162-309.50-195.50Q-270-229-204-229Q-149-229-117.50-204Q-86-179-86-134Q-86-98-110-73.50Q-134-49-176-49L-203-49L-203 33L-176 33Q-90 33-43.50-13Q3-59 3-135Z"   vert-adv-y="1000"  />

      
      <glyph glyph-name="uni0942" unicode="&#x0942;" d="M-142-300Q-155-301-180-301Q-255-301-304-259Q-353-217-353-140Q-353-62-298-16Q-243 30-154 30Q-28 30 34-49Q96-128 96-255Q96-282 95-295L9-295L9-248Q9-153-34.50-101Q-78-49-154-49Q-205-49-236.50-73.50Q-268-98-268-141Q-268-180-241-202.50Q-214-225-174-225Q-166-225-142-223L-142-300Z"   vert-adv-y="1000"  />

      
      <glyph glyph-name="uni0943" unicode="&#x0943;" d="M-45-304Q-85-318-137-318Q-220-318-278-275Q-336-232-336-143Q-336-65-283.50-17Q-231 31-139 31Q-106 31-98 30L-98-42L-131-42Q-180-42-207.50-69.50Q-235-97-235-139Q-235-188-203-210.50Q-171-233-121-233Q-80-233-45-222L-45-304Z"   vert-adv-y="1000"  />

      
      <glyph glyph-name="uni0944" unicode="&#x0944;" d="M-19-439Q-39-447-71-452Q-103-457-133-457Q-211-457-263.50-423Q-316-389-316-319Q-316-273-290-242.50Q-264-212-222-203L-222-200Q-265-190-290-163Q-315-136-315-90Q-315-28-270.50 1.50Q-226 31-166 31L-98 31L-98-28L-127-28Q-166-28-190.50-43.50Q-215-59-215-95Q-215-129-189.50-145Q-164-161-124-161L-74-161L-74-239L-121-239Q-162-239-188.50-255Q-215-271-215-308Q-215-344-187.50-359.50Q-160-375-117-375Q-90-375-62-370Q-34-365-19-360L-19-439Z"   vert-adv-y="1000"  />

      
      <glyph glyph-name="uni0962" unicode="&#x0962;" d="M112-401Q139-401 155-395L155-462Q130-467 103-467Q36-467-6-434Q-48-401-48-340Q-48-295-20.50-263Q7-231 51-222Q53-213 53-194Q53-149 32.50-121.50Q12-94-28-94Q-70-94-91.50-126Q-113-158-113-211L-113-226L-182-226L-182-211Q-182-158-203-126Q-224-94-265-94Q-307-94-329.50-121.50Q-352-149-352-195Q-352-246-325-275Q-298-304-250-304Q-235-304-229-302L-229-374Q-238-375-254-375Q-340-375-387.50-325.50Q-435-276-435-194Q-435-113-390.50-67Q-346-21-277-21Q-225-21-194-49.50Q-163-78-150-120L-148-120Q-135-78-102-49.50Q-69-21-15-21Q51-21 94-67.50Q137-114 137-194Q137-231 126-267L120-267Q76-267 53.50-286Q31-305 31-335Q31-368 54.50-384.50Q78-401 112-401Z"   vert-adv-y="1000"  />

      
      <glyph glyph-name="uni0963" unicode="&#x0963;" d="M105-519Q125-519 145-515.50Q165-512 177-508L177-570Q163-575 139.50-578.50Q116-582 93-582Q35-582-3.50-557Q-42-532-42-480Q-42-446-23-423.50Q-4-401 26-395L26-393Q-5-386-23.50-365Q-42-344-42-310Q-42-268-15-245.50Q12-223 52-220Q53-211 53-194Q53-149 32.50-121.50Q12-94-28-94Q-70-94-91.50-126Q-113-158-113-211L-113-226L-182-226L-182-211Q-182-158-203-126Q-224-94-265-94Q-307-94-329.50-121.50Q-352-149-352-195Q-352-246-325-275Q-298-304-250-304Q-235-304-229-302L-229-374Q-238-375-254-375Q-340-375-387.50-325.50Q-435-276-435-194Q-435-113-390.50-67Q-346-21-277-21Q-225-21-194-49.50Q-163-78-150-120L-148-120Q-135-78-102-49.50Q-69-21-15-21Q51-21 94-67.50Q137-114 137-194Q137-231 126-267L98-267Q71-267 53.50-278Q36-289 36-314Q36-338 54-349.50Q72-361 102-361L137-361L137-423L104-423Q35-423 35-472Q35-497 54.50-508Q74-519 105-519Z"   vert-adv-y="1000"  />

      
      <glyph glyph-name="uni0947" unicode="&#x0947;" d="M-198 736Q-247 813-278 846.50Q-309 880-338.50 890.50Q-368 901-420 901L-465 901L-465 987L-422 987Q-345 986-300.50 970.50Q-256 955-210.50 903Q-165 851-99 736L-198 736Z"   vert-adv-y="1000"  />

      
      <glyph glyph-name="uni0948" unicode="&#x0948;" d="M-427 1050Q-350 1050-309.50 1033Q-269 1016-223 952.50Q-177 889-99 737L-189 737Q-250 783-280.50 800Q-311 817-340 822Q-369 827-427 827L-473 827L-473 894L-429 894Q-373 894-344 890Q-315 886-285 870.50Q-255 855-210 819Q-252 895-285 930Q-318 965-347 973.50Q-376 982-425 982L-473 982L-473 1050L-427 1050Z"   vert-adv-y="1000"  />

      
      <glyph glyph-name="uni094B" unicode="&#x094B;" d="M325 740L325 652L203 652L203 0L98 0L98 652L-24 652L-24 740L101 740Q53 815 22.50 848Q-8 881-37.50 891Q-67 901-118 901L-163 901L-163 987L-120 987Q-44 986 0.50 971Q45 956 90.50 904.50Q136 853 201 740L325 740Z"  horiz-adv-x="302" vert-adv-y="1000"  />

      
      <glyph glyph-name="uni094C" unicode="&#x094C;" d="M325 740L325 652L203 652L203 0L98 0L98 652L-24 652L-24 740L105 740Q46 784 16 801Q-14 818-42.50 822.50Q-71 827-129 827L-175 827L-175 894L-131 894Q-75 894-46 890Q-17 886 13 870.50Q43 855 88 819Q46 895 13 930Q-20 965-49 973.50Q-78 982-127 982L-175 982L-175 1050L-129 1050Q-52 1050-11.50 1033Q29 1016 74.50 953Q120 890 197 740L325 740Z"  horiz-adv-x="301" vert-adv-y="1000"  />

      
      <glyph glyph-name="uni0945" unicode="&#x0945;" d="M58 1002Q58 922 3.50 869Q-51 816-156 816Q-262 816-316 868.50Q-370 921-370 1002L-279 1002Q-279 957-248 926Q-217 895-156 895Q-95 895-63.50 926Q-32 957-32 1002L58 1002Z"   vert-adv-y="1000"  />

      
      <glyph glyph-name="uni0949" unicode="&#x0949;" d="M98 0L98 652L-24 652L-24 740L325 740L325 652L203 652L203 0L98 0M365 1002Q365 922 310.50 869Q256 816 151 816Q45 816-9 868.50Q-63 921-63 1002L28 1002Q28 957 59 926Q90 895 151 895Q212 895 243.50 926Q275 957 275 1002L365 1002Z"  horiz-adv-x="302" vert-adv-y="1000"  />

      
      <glyph glyph-name="uni0915" unicode="&#x0915;" d="M550 652L550 457Q572 500 613.50 525.50Q655 551 714 551Q775 551 822 521.50Q869 492 895 440.50Q921 389 921 323Q921 252 894 200.50Q867 149 820 121.50Q773 94 713 94Q677 94 649 101L649 184Q664 180 686 180Q742 180 778.50 217.50Q815 255 815 321Q815 383 777.50 422Q740 461 683 461Q617 461 583.50 417Q550 373 550 312L550 0L449 0L449 183Q426 140 382 114Q338 88 276 88Q214 88 166 117Q118 146 91.50 198.50Q65 251 65 321Q65 390 92 442Q119 494 168 522.50Q217 551 280 551Q340 551 383 526Q426 501 449 459L449 652L-24 652L-24 740L1009 740L1009 652L550 652M310 176Q355 176 386.50 197Q418 218 433.50 251Q449 284 449 319Q449 376 413 418.50Q377 461 310 461Q251 461 211 422.50Q171 384 171 320Q171 254 210 215Q249 176 310 176Z"  horiz-adv-x="986" vert-adv-y="1000"  />

      
      <glyph glyph-name="uni0916" unicode="&#x0916;" d="M965 740L965 652L843 652L843 0L739 0L739 200Q718 167 682.50 148Q647 129 598 129Q580 129 562 132Q531 71 473 33.50Q415-4 337-4Q218-4 148 64Q78 132 78 253L78 400L111 400Q178 400 214.50 432.50Q251 465 251 544L251 652L-24 652L-24 740L965 740M340 87Q390 87 425 109Q460 131 480 166Q443 193 422.50 237Q402 281 402 336Q402 395 427.50 441.50Q453 488 497.50 513.50Q542 539 598 539Q647 539 682.50 520Q718 501 739 468L739 652L356 652L356 531Q356 428 308.50 378Q261 328 182 324L182 241Q182 172 224 129.50Q266 87 340 87M619 210Q677 210 708 247.50Q739 285 739 334Q739 384 708.50 421Q678 458 619 458Q567 458 531.50 425Q496 392 496 336Q496 277 531 243.50Q566 210 619 210Z"  horiz-adv-x="941" vert-adv-y="1000"  />

      
      <glyph glyph-name="uni0917" unicode="&#x0917;" d="M789 740L789 652L667 652L667 0L563 0L563 652L400 652L400 395Q400 312 356.50 260Q313 208 224 208Q137 208 90.50 256.50Q44 305 44 389Q44 410 45 420L147 420L147 389Q147 350 164.50 324Q182 298 221 298Q262 298 278.50 324.50Q295 351 295 391L295 652L-24 652L-24 740L789 740Z"  horiz-adv-x="766" vert-adv-y="1000"  />

      
      <glyph glyph-name="uni0918" unicode="&#x0918;" d="M731 652L610 652L610 0L504 0L504 205Q473 156 419.50 129Q366 102 299 102Q201 102 139.50 149.50Q78 197 78 285Q78 345 114 384.50Q150 424 203 435L203 437Q153 447 123 482.50Q93 518 93 584L93 652L-24 652L-24 740L731 740L731 652M504 652L198 652L198 589Q198 535 227 507.50Q256 480 321 480L366 480L366 395L313 395Q248 395 216 367.50Q184 340 184 295Q184 243 222.50 215.50Q261 188 323 188Q373 188 414.50 209.50Q456 231 480 270Q504 309 504 359L504 652Z"  horiz-adv-x="707" vert-adv-y="1000"  />

      
      <glyph glyph-name="uni0919" unicode="&#x0919;" d="M696 740L696 652L469 652L469 470L290 470Q245 470 215 454Q185 438 185 398Q185 360 211 343Q237 326 278 326L323 326Q410 326 469 285Q528 244 528 155Q528 77 472 30.50Q416-16 313-16Q202-16 134.50 36.50Q67 89 65 177L169 177Q170 126 207 95Q244 64 310 64Q367 64 398 89.50Q429 115 429 156Q429 206 394 228.50Q359 251 304 251L265 251Q190 251 135 285.50Q80 320 80 401Q80 475 132 510Q184 545 261 545L367 545L367 652L-24 652L-24 740L696 740M594 447Q620 447 637.50 429.50Q655 412 655 386Q655 361 637 343.50Q619 326 594 326Q569 326 551 343.50Q533 361 533 386Q533 412 551 429.50Q569 447 594 447Z"  horiz-adv-x="672" vert-adv-y="1000"  />

      
      <glyph glyph-name="uni091A" unicode="&#x091A;" d="M764 652L642 652L642 0L537 0L537 191Q508 146 459.50 120.50Q411 95 350 95Q291 95 243.50 118.50Q196 142 168 186.50Q140 231 140 292Q140 340 159.50 378Q179 416 216 440L50 440L50 523L415 523L415 440L378 440Q316 440 277.50 403.50Q239 367 239 309Q239 250 279.50 216Q320 182 380 182Q450 183 493.50 232Q537 281 537 355L537 652L-24 652L-24 740L764 740L764 652Z"  horiz-adv-x="740" vert-adv-y="1000"  />

      
      <glyph glyph-name="uni091B" unicode="&#x091B;" d="M633 652L633 542Q697 527 735.50 474Q774 421 774 337Q774 242 728 171.50Q682 101 597 63Q512 25 399 25Q249 25 159.50 81.50Q70 138 70 245Q70 310 106 352Q142 394 200 407L200 410Q151 419 121 455Q91 491 91 557L91 652L-24 652L-24 740L843 740L843 652L633 652M536 652L195 652L195 561Q195 507 223 479.50Q251 452 312 452L333 452L333 367L314 367Q245 367 210.50 335.50Q176 304 176 255Q176 187 234.50 151Q293 115 400 115Q528 115 604.50 175Q681 235 681 341Q681 401 652.50 435Q624 469 584 469Q546 469 518.50 442.50Q491 416 491 364Q491 324 507 276L420 276Q403 322 403 375Q403 447 439.50 488.50Q476 530 536 542L536 652Z"  horiz-adv-x="819" vert-adv-y="1000"  />

      
      <glyph glyph-name="uni091C" unicode="&#x091C;" d="M870 652L748 652L748 0L643 0L643 406L475 406L475 330Q475 237 420 179.50Q365 122 271 122Q175 122 121.50 179Q68 236 68 330L68 496L174 496L174 332Q174 278 200 246Q226 214 272 214Q319 214 346 246Q373 278 373 332L373 496L643 496L643 652L-24 652L-24 740L870 740L870 652Z"  horiz-adv-x="846" vert-adv-y="1000"  />

      
      <glyph glyph-name="uni091D" unicode="&#x091D;" d="M879 652L757 652L757 0L654 0L654 246L486 247Q523 205 523 142Q523 75 479 33Q435-9 353-9Q290-9 252 14.50Q214 38 195 64L195-79L96-79L96 171L190 171Q196 126 230 97.50Q264 69 322 69Q373 69 399.50 93.50Q426 118 426 155Q426 200 394 225.50Q362 251 301 251L245 251Q174 254 125 290Q76 326 76 398Q76 474 128 510Q180 546 259 546L365 546L365 652L-24 652L-24 740L879 740L879 652M654 326L654 652L466 652L466 470L287 470Q242 470 211.50 454Q181 438 181 397Q181 360 207.50 343Q234 326 276 326L320 326L654 326Z"  horiz-adv-x="855" vert-adv-y="1000"  />

      
      <glyph glyph-name="uni091E" unicode="&#x091E;" d="M841 652L719 652L719 0L614 0L614 276L516 276Q504 187 444.50 133Q385 79 289 79Q225 79 176.50 102.50Q128 126 99.50 167Q71 208 65 259L164 259Q175 220 207.50 194Q240 168 290 168Q354 168 389 210.50Q424 253 424 316Q424 378 389 420.50Q354 463 290 463Q239 463 206.50 436.50Q174 410 164 372L65 372Q74 451 133 501.50Q192 552 289 552Q382 552 441.50 500.50Q501 449 515 365L614 365L614 652L-24 652L-24 740L841 740L841 652Z"  horiz-adv-x="817" vert-adv-y="1000"  />

      
      <glyph glyph-name="uni091F" unicode="&#x091F;" d="M360 459Q276 459 223 415.50Q170 372 170 289Q170 218 217 172.50Q264 127 338 127Q414 127 461 174.50Q508 222 508 297L608 297Q608 220 575 160.50Q542 101 481 68.50Q420 36 340 36Q261 36 198 68Q135 100 100 157.50Q65 215 65 289Q65 370 101 428.50Q137 487 202 517.50Q267 548 354 548L369 548L369 652L-24 652L-24 740L673 740L673 652L472 652L472 459L360 459Z"  horiz-adv-x="649" vert-adv-y="1000"  />

      
      <glyph glyph-name="uni0920" unicode="&#x0920;" d="M388 652L388 543Q485 528 547.50 462.50Q610 397 610 295Q610 220 574.50 162.50Q539 105 476.50 73.50Q414 42 337 42Q260 42 198 73.50Q136 105 100.50 162.50Q65 220 65 295Q65 396 126.50 461.50Q188 527 284 543L284 652L-24 652L-24 740L698 740L698 652L388 652M506 295Q506 367 459 412.50Q412 458 337 458Q263 458 216 412.50Q169 367 169 295Q169 248 190.50 210Q212 172 250.50 151Q289 130 337 130Q412 130 459 176.50Q506 223 506 295Z"  horiz-adv-x="674" vert-adv-y="1000"  />

      
      <glyph glyph-name="uni0921" unicode="&#x0921;" d="M290 470Q245 470 215 454Q185 438 185 398Q185 360 211 343Q237 326 278 326L323 326Q410 326 469 285Q528 244 528 155Q528 77 472 30.50Q416-16 313-16Q202-16 134.50 36.50Q67 89 65 177L169 177Q170 126 207 95Q244 64 310 64Q367 64 398 89.50Q429 115 429 156Q429 206 394 228.50Q359 251 304 251L265 251Q190 251 135 285.50Q80 320 80 401Q80 475 132 510Q184 545 261 545L363 545L363 652L-24 652L-24 740L595 740L595 652L464 652L464 470L290 470Z"  horiz-adv-x="572" vert-adv-y="1000"  />

      
      <glyph glyph-name="uni0922" unicode="&#x0922;" d="M390 479Q290 479 228 427Q166 375 166 277Q166 220 191 175Q216 130 263 105Q310 80 374 80Q442 80 486 113Q530 146 530 201Q530 240 505.50 265Q481 290 443 290Q410 290 387 269Q364 248 364 214Q364 203 367 195L290 195Q287 212 287 228Q287 292 332 329Q377 366 447 366Q526 366 573 320.50Q620 275 620 201Q620 110 553.50 56.50Q487 3 372 3Q285 3 215 36.50Q145 70 105 133Q65 196 65 280Q65 368 103 429.50Q141 491 207 522Q273 553 358 553L392 553L392 652L-24 652L-24 740L669 740L669 652L491 652L491 479L390 479Z"  horiz-adv-x="645" vert-adv-y="1000"  />

      
      <glyph glyph-name="uni0923" unicode="&#x0923;" d="M891 652L769 652L769 0L664 0L664 652L487 652L487 378Q487 286 435 229Q383 172 287 172Q192 172 140 229.50Q88 287 88 378L88 652L-24 652L-24 740L891 740L891 652M384 652L191 652L191 368Q191 320 217.50 290.50Q244 261 288 261Q333 261 358.50 290.50Q384 320 384 368L384 652Z"  horiz-adv-x="867" vert-adv-y="1000"  />

      
      <glyph glyph-name="uni0924" unicode="&#x0924;" d="M722 652L600 652L600 0L495 0L495 406L355 406Q269 406 220 365Q171 324 171 246Q171 170 214.50 127.50Q258 85 340 85L361 85L361 2L325 2Q207 2 136 64.50Q65 127 65 248Q65 372 143 434Q221 496 350 496L495 496L495 652L-24 652L-24 740L722 740L722 652Z"  horiz-adv-x="698" vert-adv-y="1000"  />

      
      <glyph glyph-name="uni0925" unicode="&#x0925;" d="M798 740L798 652L676 652L676 0L571 0L571 217Q548 166 490 130Q432 94 347 94Q263 94 201 127.50Q139 161 105.50 223.50Q72 286 72 370Q72 401 76 428L171 428Q371 428 371 561Q371 603 345.50 631Q320 659 277 659Q232 659 205.50 631.50Q179 604 179 557Q179 542 183 516L88 516Q84 544 84 560Q84 619 109 661.50Q134 704 178.50 726.50Q223 749 278 749Q335 749 378 725Q421 701 445 657.50Q469 614 469 558Q469 458 399.50 405Q330 352 210 352L173 352Q175 275 223 228.50Q271 182 362 182Q420 182 467.50 206.50Q515 231 543 278.50Q571 326 571 390L571 740L798 740Z"  horiz-adv-x="774" vert-adv-y="1000"  />

      
      <glyph glyph-name="uni0926" unicode="&#x0926;" d="M341 461Q267 461 219.50 422Q172 383 172 313Q172 249 210 211Q248 173 312 173Q363 173 401 205Q439 237 439 296L536 296L536-21L433-21L433 158Q411 126 371.50 107.50Q332 89 283 89Q221 89 171.50 115.50Q122 142 93.50 193Q65 244 65 316Q65 392 100 445Q135 498 195 524.50Q255 551 331 551L393 551L393 652L-24 652L-24 740L634 740L633 652L498 652L498 461L341 461Z"  horiz-adv-x="610" vert-adv-y="1000"  />

      
      <glyph glyph-name="uni0927" unicode="&#x0927;" d="M746 652L626 652L626 0L521 0L521 203Q490 151 433.50 121.50Q377 92 303 92Q207 92 145 138Q83 184 83 268Q83 329 119 367Q155 405 203 413L203 416Q149 429 112.50 471Q76 513 76 581Q76 656 125 702.50Q174 749 252 749Q331 749 376.50 704Q422 659 422 587Q422 574 420 552L341 552L342 575Q342 612 319 636.50Q296 661 255 661Q214 661 190 635Q166 609 166 570Q166 517 206 488Q246 459 311 459L369 459L369 374L315 374Q255 374 222.50 348.50Q190 323 190 279Q190 230 228 204.50Q266 179 328 179Q384 179 427.50 203.50Q471 228 496 272.50Q521 317 521 374L521 740L746 740L746 652Z"  horiz-adv-x="718" vert-adv-y="1000"  />

      
      <glyph glyph-name="uni0928" unicode="&#x0928;" d="M823 652L701 652L701 0L596 0L596 414L422 414Q467 362 467 289Q467 232 441 189.50Q415 147 369.50 125Q324 103 268 103Q210 103 162 127.50Q114 152 86.50 197Q59 242 59 302Q59 365 87.50 410Q116 455 165.50 478.50Q215 502 277 502L596 502L596 652L-24 652L-24 740L823 740L823 652M270 192Q320 192 351.50 223Q383 254 383 303Q383 351 351 382.50Q319 414 270 414Q219 414 186.50 382.50Q154 351 154 302Q154 253 186 222.50Q218 192 270 192Z"  horiz-adv-x="799" vert-adv-y="1000"  />

      
      <glyph glyph-name="uni092A" unicode="&#x092A;" d="M685 652L563 652L563 0L459 0L459 262Q434 226 393 206Q352 186 297 186Q191 186 135.50 254Q80 322 80 437L80 652L-24 652L-24 740L685 740L685 652M459 652L185 652L185 437Q185 361 219 318Q253 275 323 275Q387 275 423 316.50Q459 358 459 419L459 652Z"  horiz-adv-x="661" vert-adv-y="1000"  />

      
      <glyph glyph-name="uni092B" unicode="&#x092B;" d="M545 652L545 457Q568 500 611.50 525.50Q655 551 715 551Q775 551 822 522Q869 493 895 442Q921 391 921 326Q921 254 894.50 201.50Q868 149 820.50 121.50Q773 94 713 94Q676 94 646 102L646 184Q666 179 687 179Q743 179 779 217.50Q815 256 815 321Q815 383 778 422Q741 461 683 461Q615 461 580 414.50Q545 368 545 301L545 0L440 0L440 260Q416 225 377.50 205.50Q339 186 288 186Q187 186 133.50 252.50Q80 319 80 432L80 652L-24 652L-24 740L1009 740L1009 652L545 652M440 652L185 652L185 432Q185 358 217 316.50Q249 275 313 275Q373 275 406.50 315Q440 355 440 414L440 652Z"  horiz-adv-x="985" vert-adv-y="1000"  />

      
      <glyph glyph-name="uni092C" unicode="&#x092C;" d="M712 740L712 652L591 652L591 0L490 0L490 175Q465 133 418 107.50Q371 82 308 82Q240 82 184.50 112Q129 142 97 196.50Q65 251 65 322Q65 393 96.50 447Q128 501 183 531Q238 561 306 561Q368 561 415 535.50Q462 510 490 468L490 652L-24 652L-24 740L712 740M327 491Q260 491 214 451L471 235Q495 276 495 324Q495 367 475.50 405.50Q456 444 418 467.50Q380 491 327 491M157 322Q157 272 180 235Q203 198 242 178Q281 158 328 158Q397 158 441 199L182 415Q157 376 157 322Z"  horiz-adv-x="689" vert-adv-y="1000"  />

      
      <glyph glyph-name="uni092D" unicode="&#x092D;" d="M836 740L836 652L713 652L713 0L608 0L608 371L456 371L456 302Q456 200 406.50 144.50Q357 89 265 89Q177 89 123.50 140Q70 191 70 274Q70 361 127 409Q184 457 273 457L358 457L358 546Q358 599 338 629Q318 659 277 659Q241 659 218.50 634Q196 609 196 566Q196 547 200 530L95 530Q91 554 91 570Q91 651 139 700Q187 749 273 749Q369 749 412.50 690Q456 631 456 528L456 457L608 457L608 740L836 740M358 371L276 371Q227 371 197.50 345Q168 319 168 274Q168 230 195 204Q222 178 264 178Q309 178 333.50 209.50Q358 241 358 297L358 371Z"  horiz-adv-x="812" vert-adv-y="1000"  />

      
      <glyph glyph-name="uni092E" unicode="&#x092E;" d="M826 652L704 652L704 0L599 0L599 371L432 371L432 302Q432 200 382.50 144.50Q333 89 240 89Q152 89 99 140Q46 191 46 274Q46 361 102.50 409Q159 457 248 457L334 457L334 652L-24 652L-24 740L826 740L826 652M599 652L432 652L432 457L599 457L599 652M334 371L251 371Q203 371 173 345Q143 319 143 274Q143 230 170 204Q197 178 239 178Q284 178 309 209.50Q334 241 334 297L334 371Z"  horiz-adv-x="803" vert-adv-y="1000"  />

      
      <glyph glyph-name="uni092F" unicode="&#x092F;" d="M767 652L645 652L645 0L540 0L540 200Q510 156 457 129.50Q404 103 331 103Q204 103 134.50 179Q65 255 65 385Q65 411 68 436L81 436Q167 436 209 472.50Q251 509 251 590L251 652L-24 652L-24 740L767 740L767 652M540 652L355 652L355 572Q355 390 168 379L168 375Q168 291 217 241Q266 191 353 191Q406 191 449 214Q492 237 516 278Q540 319 540 371L540 652Z"  horiz-adv-x="743" vert-adv-y="1000"  />

      
      <glyph glyph-name="uni0930" unicode="&#x0930;" d="M180 327L180 202Q180 147 205 114Q230 81 279 81Q324 81 350.50 111.50Q377 142 377 193L377 215L478 215L478 196Q478 102 425.50 46.50Q373-9 281-9Q182-9 129.50 50.50Q77 110 77 207L77 413L181 413Q344 413 344 569L344 652L-24 652L-24 740L558 740L558 652L448 652L448 569Q448 453 392 390Q336 327 218 327L180 327Z"  horiz-adv-x="534" vert-adv-y="1000"  />

      
      <glyph glyph-name="uni0932" unicode="&#x0932;" d="M699 652L699 528Q765 508 803.50 450Q842 392 842 305Q842 233 814 177Q786 121 731 89Q676 57 598 57Q590 57 564 59L564 151L592 149Q660 149 698 191Q736 233 736 303Q736 366 705 405.50Q674 445 618 445Q558 445 527.50 400.50Q497 356 497 281L497 263L409 263L409 281Q409 355 380 400Q351 445 293 445Q235 445 203 406Q171 367 171 303Q171 233 209 191Q247 149 315 149L343 151L343 59Q317 57 309 57Q231 57 176 89Q121 121 93 177Q65 233 65 305Q65 378 92.50 430Q120 482 168.50 509.50Q217 537 279 537Q350 537 392.50 498.50Q435 460 452 402L455 402Q470 452 504.50 488Q539 524 596 534L596 652L-24 652L-24 740L930 740L930 652L699 652Z"  horiz-adv-x="907" vert-adv-y="1000"  />

      
      <glyph glyph-name="uni0935" unicode="&#x0935;" d="M696 740L696 652L574 652L574 0L472 0L472 181Q446 137 400.50 111.50Q355 86 292 86Q224 86 172.50 116Q121 146 93 200Q65 254 65 324Q65 391 93.50 443.50Q122 496 173.50 525.50Q225 555 292 555Q354 555 400 530Q446 505 472 461L472 652L-24 652L-24 740L696 740M319 170Q369 170 403.50 192Q438 214 455 248Q472 282 472 319L472 320Q472 358 455 392.50Q438 427 403.50 448.50Q369 470 319 470Q254 470 211 429Q168 388 168 321Q168 252 210.50 211Q253 170 319 170Z"  horiz-adv-x="672" vert-adv-y="1000"  />

      
      <glyph glyph-name="uni0936" unicode="&#x0936;" d="M189 310L189 212Q189 154 216.50 118.50Q244 83 301 83Q351 83 379 115.50Q407 148 407 201L407 215L509 215L509 200Q509 103 454 47.50Q399-8 304-8Q199-8 141 53.50Q83 115 83 219L83 399L227 399Q309 399 361.50 434Q414 469 414 541Q414 595 385 626.50Q356 658 306 658Q256 658 227 626.50Q198 595 198 541Q198 528 200 500L96 500Q92 530 92 544Q92 605 118 651.50Q144 698 192.50 723.50Q241 749 306 749Q403 749 461.50 692.50Q520 636 520 534Q520 425 448.50 367.50Q377 310 264 310L189 310M850 740L850 652L728 652L728 0L622 0L622 740L850 740Z"  horiz-adv-x="826" vert-adv-y="1000"  />

      
      <glyph glyph-name="uni0937" unicode="&#x0937;" d="M694 652L572 652L572 0L469 0L469 258Q444 220 402.50 199.50Q361 179 303 179Q195 179 137.50 249Q80 319 80 437L80 652L-24 652L-24 740L694 740L694 652M469 652L183 652L469 431L469 652M324 268Q375 268 410 292.50Q445 317 459 358L181 573L181 434Q181 356 217 312Q253 268 324 268Z"  horiz-adv-x="670" vert-adv-y="1000"  />

      
      <glyph glyph-name="uni0938" unicode="&#x0938;" d="M846 652L723 652L723 0L619 0L619 335L180 335L180 203Q180 148 205.50 114.50Q231 81 281 81Q328 81 354.50 111.50Q381 142 381 193L381 205L482 205Q483 198 483 188Q483 97 429.50 44Q376-9 283-9Q184-9 130.50 51Q77 111 77 208L77 411L164 411Q246 411 286.50 453Q327 495 327 568L327 652L-24 652L-24 740L846 740L846 652M619 652L431 652L431 568Q431 479 383 421L619 421L619 652Z"  horiz-adv-x="822" vert-adv-y="1000"  />

      
      <glyph glyph-name="uni0939" unicode="&#x0939;" d="M292 473Q250 473 224 456Q198 439 198 402Q198 376 213 358Q228 340 254 331Q282 336 308 336Q408 336 464.50 287.50Q521 239 532 165L432 165Q423 200 390.50 226Q358 252 306 252Q245 252 209 213.50Q173 175 173 116Q173 56 208.50 18.50Q244-19 306-19Q356-19 389 6Q422 31 432 66L532 66Q525 18 496-21Q467-60 418.50-83Q370-106 306-106Q233-106 179.50-77Q126-48 98 2.50Q70 53 70 118Q70 179 96.50 226.50Q123 274 172 302Q136 320 115 350Q94 380 94 422Q94 483 138 516Q182 549 256 549L372 549L372 652L-24 652L-24 740L609 740L609 652L472 652L472 473L292 473Z"  horiz-adv-x="586" vert-adv-y="1000"  />

      
      <glyph glyph-name="uni0933" unicode="&#x0933;" d="M761 652L761 532Q833 512 877.50 453Q922 394 922 310Q922 243 892.50 191.50Q863 140 811 111.50Q759 83 696 83Q623 83 570 119.50Q517 156 495 216L491 216Q470 156 417 119.50Q364 83 291 83Q228 83 176 111.50Q124 140 94.50 191.50Q65 243 65 310Q65 378 94.50 430.50Q124 483 175.50 511.50Q227 540 290 540Q361 540 412.50 505Q464 470 492 409L495 409Q518 462 560 495.50Q602 529 659 537L659 652L-24 652L-24 740L1010 740L1010 652L761 652M305 173Q366 173 404 211Q442 249 442 310Q442 372 404 411Q366 450 305 450Q244 450 205.50 411Q167 372 167 309Q167 248 206 210.50Q245 173 305 173M819 309Q819 372 780.50 411Q742 450 682 450Q621 450 583 411Q545 372 545 310Q545 249 582.50 211Q620 173 681 173Q742 173 780.50 210.50Q819 248 819 309Z"  horiz-adv-x="987" vert-adv-y="1000"  />

      
      <glyph glyph-name="uni0958" unicode="&#x0958;" d="M550 652L550 457Q572 500 613.50 525.50Q655 551 714 551Q775 551 822 521.50Q869 492 895 440.50Q921 389 921 323Q921 252 894 200.50Q867 149 820 121.50Q773 94 713 94Q677 94 649 101L649 184Q664 180 686 180Q742 180 778.50 217.50Q815 255 815 321Q815 383 777.50 422Q740 461 683 461Q617 461 583.50 417Q550 373 550 312L550 0L449 0L449 183Q426 140 382 114Q338 88 276 88Q214 88 166 117Q118 146 91.50 198.50Q65 251 65 321Q65 390 92 442Q119 494 168 522.50Q217 551 280 551Q340 551 383 526Q426 501 449 459L449 652L-24 652L-24 740L1009 740L1009 652L550 652M310 176Q355 176 386.50 197Q418 218 433.50 251Q449 284 449 319Q449 376 413 418.50Q377 461 310 461Q251 461 211 422.50Q171 384 171 320Q171 254 210 215Q249 176 310 176M327-53Q327-81 308-99.50Q289-118 260-118Q232-118 213-99.50Q194-81 194-53Q194-25 213-5.50Q232 14 260 14Q288 14 307.50-5.50Q327-25 327-53Z"  horiz-adv-x="986" vert-adv-y="1000"  />

      
      <glyph glyph-name="uni0959" unicode="&#x0959;" d="M965 740L965 652L843 652L843 0L739 0L739 200Q718 167 682.50 148Q647 129 598 129Q580 129 562 132Q531 71 473 33.50Q415-4 337-4Q218-4 148 64Q78 132 78 253L78 400L111 400Q178 400 214.50 432.50Q251 465 251 544L251 652L-24 652L-24 740L965 740M340 87Q390 87 425 109Q460 131 480 166Q443 193 422.50 237Q402 281 402 336Q402 395 427.50 441.50Q453 488 497.50 513.50Q542 539 598 539Q647 539 682.50 520Q718 501 739 468L739 652L356 652L356 531Q356 428 308.50 378Q261 328 182 324L182 241Q182 172 224 129.50Q266 87 340 87M619 210Q677 210 708 247.50Q739 285 739 334Q739 384 708.50 421Q678 458 619 458Q567 458 531.50 425Q496 392 496 336Q496 277 531 243.50Q566 210 619 210M385-142Q385-170 366-188.50Q347-207 318-207Q290-207 271-188.50Q252-170 252-142Q252-114 271-94.50Q290-75 318-75Q346-75 365.50-94.50Q385-114 385-142Z"  horiz-adv-x="941" vert-adv-y="1000"  />

      
      <glyph glyph-name="uni095A" unicode="&#x095A;" d="M789 740L789 652L667 652L667 0L563 0L563 652L400 652L400 395Q400 312 356.50 260Q313 208 224 208Q137 208 90.50 256.50Q44 305 44 389Q44 410 45 420L147 420L147 389Q147 350 164.50 324Q182 298 221 298Q262 298 278.50 324.50Q295 351 295 391L295 652L-24 652L-24 740L789 740M294 64Q294 36 275 17.50Q256-1 227-1Q199-1 180 17.50Q161 36 161 64Q161 92 180 111.50Q199 131 227 131Q255 131 274.50 111.50Q294 92 294 64Z"  horiz-adv-x="765" vert-adv-y="1000"  />

      
      <glyph glyph-name="uni095B" unicode="&#x095B;" d="M870 652L748 652L748 0L643 0L643 406L475 406L475 330Q475 237 420 179.50Q365 122 271 122Q175 122 121.50 179Q68 236 68 330L68 496L174 496L174 332Q174 278 200 246Q226 214 272 214Q319 214 346 246Q373 278 373 332L373 496L643 496L643 652L-24 652L-24 740L870 740L870 652M341-18Q341-46 322-64.50Q303-83 274-83Q246-83 227-64.50Q208-46 208-18Q208 10 227 29.50Q246 49 274 49Q302 49 321.50 29.50Q341 10 341-18Z"  horiz-adv-x="846" vert-adv-y="1000"  />

      
      <glyph glyph-name="uni095C" unicode="&#x095C;" d="M290 470Q245 470 215 454Q185 438 185 398Q185 360 211 343Q237 326 278 326L323 326Q410 326 469 285Q528 244 528 155Q528 77 472 30.50Q416-16 313-16Q202-16 134.50 36.50Q67 89 65 177L169 177Q170 126 207 95Q244 64 310 64Q367 64 398 89.50Q429 115 429 156Q429 206 394 228.50Q359 251 304 251L265 251Q190 251 135 285.50Q80 320 80 401Q80 475 132 510Q184 545 261 545L363 545L363 652L-24 652L-24 740L595 740L595 652L464 652L464 470L290 470M376-156Q376-184 357-202.50Q338-221 309-221Q281-221 262-202.50Q243-184 243-156Q243-128 262-108.50Q281-89 309-89Q337-89 356.50-108.50Q376-128 376-156Z"  horiz-adv-x="572" vert-adv-y="1000"  />

      
      <glyph glyph-name="uni095D" unicode="&#x095D;" d="M390 479Q290 479 228 427Q166 375 166 277Q166 220 191 175Q216 130 263 105Q310 80 374 80Q442 80 486 113Q530 146 530 201Q530 240 505.50 265Q481 290 443 290Q410 290 387 269Q364 248 364 214Q364 203 367 195L290 195Q287 212 287 228Q287 292 332 329Q377 366 447 366Q526 366 573 320.50Q620 275 620 201Q620 110 553.50 56.50Q487 3 372 3Q285 3 215 36.50Q145 70 105 133Q65 196 65 280Q65 368 103 429.50Q141 491 207 522Q273 553 358 553L392 553L392 652L-24 652L-24 740L669 740L669 652L491 652L491 479L390 479M416-136Q416-164 397-182.50Q378-201 349-201Q321-201 302-182.50Q283-164 283-136Q283-108 302-88.50Q321-69 349-69Q377-69 396.50-88.50Q416-108 416-136Z"  horiz-adv-x="645" vert-adv-y="1000"  />

      
      <glyph glyph-name="uni095E" unicode="&#x095E;" d="M545 652L545 457Q568 500 611.50 525.50Q655 551 715 551Q775 551 822 522Q869 493 895 442Q921 391 921 326Q921 254 894.50 201.50Q868 149 820.50 121.50Q773 94 713 94Q676 94 646 102L646 184Q666 179 687 179Q743 179 779 217.50Q815 256 815 321Q815 383 778 422Q741 461 683 461Q615 461 580 414.50Q545 368 545 301L545 0L440 0L440 260Q416 225 377.50 205.50Q339 186 288 186Q187 186 133.50 252.50Q80 319 80 432L80 652L-24 652L-24 740L1009 740L1009 652L545 652M440 652L185 652L185 432Q185 358 217 316.50Q249 275 313 275Q373 275 406.50 315Q440 355 440 414L440 652M317 50Q317 22 298 3.50Q279-15 250-15Q222-15 203 3.50Q184 22 184 50Q184 78 203 97.50Q222 117 250 117Q278 117 297.50 97.50Q317 78 317 50Z"  horiz-adv-x="985" vert-adv-y="1000"  />

      
      <glyph glyph-name="uni0931" unicode="&#x0931;" d="M180 327L180 202Q180 147 205 114Q230 81 279 81Q324 81 350.50 111.50Q377 142 377 193L377 215L478 215L478 196Q478 102 425.50 46.50Q373-9 281-9Q182-9 129.50 50.50Q77 110 77 207L77 413L181 413Q344 413 344 569L344 652L-24 652L-24 740L558 740L558 652L448 652L448 569Q448 453 392 390Q336 327 218 327L180 327M180-110Q180-138 161-156.50Q142-175 113-175Q85-175 66-156.50Q47-138 47-110Q47-82 66-62.50Q85-43 113-43Q141-43 160.50-62.50Q180-82 180-110Z"  horiz-adv-x="534" vert-adv-y="1000"  />

      
      <glyph glyph-name="uni0902" unicode="&#x0902;" d="M-85 895Q-85 867-104 848Q-123 829-151 829Q-179 829-198.50 848Q-218 867-218 895Q-218 923-198.50 942Q-179 961-151 961Q-123 961-104 942Q-85 923-85 895Z"   vert-adv-y="1000"  />

      
      <glyph glyph-name="uni0901" unicode="&#x0901;" d="M-109 1030Q-109 1010-122.50 996.50Q-136 983-156 983Q-176 983-189.50 997Q-203 1011-203 1030Q-203 1050-189.50 1063.50Q-176 1077-156 1077Q-136 1077-122.50 1063.50Q-109 1050-109 1030M58 1002Q58 920 2.50 868Q-53 816-156 816Q-259 816-314.50 868Q-370 920-370 1002L-285 1002Q-285 957-251 924.50Q-217 892-156 892Q-95 892-61 924.50Q-27 957-27 1002L58 1002Z"   vert-adv-y="1000"  />

      
      <glyph glyph-name="uni0903" unicode="&#x0903;" d="M190 485Q190 457 170.50 438Q151 419 123 419Q95 419 75.50 438Q56 457 56 485Q56 513 75.50 532Q95 551 123 551Q151 551 170.50 532Q190 513 190 485M190 185Q190 157 170.50 138Q151 119 123 119Q95 119 75.50 138Q56 157 56 185Q56 213 75.50 232Q95 251 123 251Q151 251 170.50 232Q190 213 190 185Z"  horiz-adv-x="246" vert-adv-y="1000"  />

      
      <glyph glyph-name="uni093D" unicode="&#x093D;" d="M70 57L70 146L304 146Q340 146 359.50 161.50Q379 177 379 202Q379 231 355 258Q331 285 278 328Q231 367 201.50 396Q172 425 151 463Q130 501 130 545Q130 609 173 640.50Q216 672 286 672L496 672L496 583L311 583Q277 583 257 571.50Q237 560 237 530Q237 500 261.50 472.50Q286 445 339 401Q385 363 414.50 334Q444 305 464.50 267.50Q485 230 485 187Q485 129 444 93Q403 57 330 57L70 57Z"  horiz-adv-x="582" vert-adv-y="1000"  />

      
      <glyph glyph-name="uni094D" unicode="&#x094D;" d="M-76-265L-200-59L-95-59L32-265L-76-265Z"   vert-adv-y="1000"  />

      
      <glyph glyph-name="uni093C" unicode="&#x093C;" d="M-270-116Q-270-144-289-162.50Q-308-181-337-181Q-365-181-384-162.50Q-403-144-403-116Q-403-88-384-68.50Q-365-49-337-49Q-309-49-289.50-68.50Q-270-88-270-116Z"   vert-adv-y="1000"  />

      
      <glyph glyph-name="uni0966" unicode="&#x0966;" d="M60 374Q60 547 118.50 644.50Q177 742 320 742Q463 742 521.50 644.50Q580 547 580 374Q580 199 521.50 100.50Q463 2 320 2Q177 2 118.50 100.50Q60 199 60 374M468 374Q468 455 457.50 511Q447 567 415 602.50Q383 638 320 638Q257 638 225 602.50Q193 567 182.50 511Q172 455 172 374Q172 290 182 233Q192 176 224.50 141Q257 106 320 106Q383 106 415.50 141Q448 176 458 233Q468 290 468 374Z"  horiz-adv-x="641" vert-adv-y="1000"  />

      
      <glyph glyph-name="uni0967" unicode="&#x0967;" d="M45 625L45 729L253 729L253 0L138 0L138 625L45 625Z"  horiz-adv-x="350" vert-adv-y="1000"  />

      
      <glyph glyph-name="uni0968" unicode="&#x0968;" d="M123 155Q219 238 274.50 291.50Q330 345 367 403Q404 461 404 519Q404 579 375.50 613Q347 647 286 647Q227 647 194.50 609.50Q162 572 160 509L50 509Q53 623 118.50 683.50Q184 744 285 744Q394 744 455.50 684Q517 624 517 524Q517 452 480.50 385.50Q444 319 393.50 266.50Q343 214 265 145L220 105L537 105L537 10L51 10L51 93L123 155Z"  horiz-adv-x="577" vert-adv-y="1000"  />

      
      <glyph glyph-name="uni0969" unicode="&#x0969;" d="M58 549Q64 642 129.50 694Q195 746 297 746Q367 746 418 721Q469 696 495 653Q521 610 521 556Q521 494 488 450Q455 406 409 391L409 387Q468 369 501 321.50Q534 274 534 200Q534 141 507 95Q480 49 427 22.50Q374-4 300-4Q192-4 122.50 51.50Q53 107 48 211L158 211Q162 158 199 124.50Q236 91 299 91Q360 91 393 124.50Q426 158 426 211Q426 281 381.50 310.50Q337 340 245 340L219 340L219 434L246 434Q327 435 369.50 461Q412 487 412 543Q412 591 381 619.50Q350 648 293 648Q237 648 206 619.50Q175 591 169 549L58 549Z"  horiz-adv-x="594" vert-adv-y="1000"  />

      
      <glyph glyph-name="uni096A" unicode="&#x096A;" d="M46 152L46 238L382 720L520 720L520 251L613 251L613 152L520 152L520 0L408 0L408 152L46 152M413 604L177 251L413 251L413 604Z"  horiz-adv-x="647" vert-adv-y="1000"  />

      
      <glyph glyph-name="uni096B" unicode="&#x096B;" d="M530 631L195 631L195 432Q216 460 257.50 479Q299 498 346 498Q430 498 482.50 462Q535 426 557.50 371Q580 316 580 255Q580 181 551.50 123.50Q523 66 466.50 33Q410 0 328 0Q219 0 153 54Q87 108 74 197L185 197Q196 150 234 122.50Q272 95 329 95Q400 95 435.50 138Q471 181 471 252Q471 324 435 362.50Q399 401 329 401Q280 401 246.50 376.50Q213 352 198 310L90 310L90 731L530 731L530 631Z"  horiz-adv-x="639" vert-adv-y="1000"  />

      
      <glyph glyph-name="uni096C" unicode="&#x096C;" d="M452 560Q441 606 412 629Q383 652 331 652Q252 652 213 591.50Q174 531 172 391Q198 435 248 459Q298 483 356 483Q422 483 472.50 454.50Q523 426 551.50 372Q580 318 580 243Q580 173 552.50 118Q525 63 471 31.50Q417 0 341 0Q238 0 179.50 45.50Q121 91 97.50 174Q74 257 74 381Q74 747 332 747Q432 747 489.50 693Q547 639 557 560L452 560M331 387Q270 387 227.50 350.50Q185 314 185 245Q185 176 224.50 135.50Q264 95 335 95Q398 95 434.50 134Q471 173 471 238Q471 306 435.50 346.50Q400 387 331 387Z"  horiz-adv-x="642" vert-adv-y="1000"  />

      
      <glyph glyph-name="uni096D" unicode="&#x096D;" d="M522 641L244 0L129 0L410 629L40 629L40 726L522 726L522 641Z"  horiz-adv-x="560" vert-adv-y="1000"  />

      
      <glyph glyph-name="uni096E" unicode="&#x096E;" d="M183 381Q79 433 79 545Q79 599 106 644Q133 689 187 715.50Q241 742 319 742Q396 742 450.50 715.50Q505 689 532 644Q559 599 559 545Q559 489 530.50 446.50Q502 404 455 381Q512 360 545 312.50Q578 265 578 201Q578 136 545 86Q512 36 453 9Q394-18 319-18Q244-18 185.50 9Q127 36 94 86Q61 136 61 201Q61 266 94 313Q127 360 183 381M450 531Q450 587 415 617Q380 647 319 647Q259 647 224 617Q189 587 189 530Q189 480 225.50 448.50Q262 417 319 417Q376 417 413 449Q450 481 450 531M319 331Q253 331 211.50 298.50Q170 266 170 205Q170 148 210 112.50Q250 77 319 77Q387 77 426.50 113Q466 149 466 205Q466 265 425.50 298Q385 331 319 331Z"  horiz-adv-x="638" vert-adv-y="1000"  />

      
      <glyph glyph-name="uni096F" unicode="&#x096F;" d="M202 198Q212 148 245 122Q278 96 334 96Q405 96 438 152Q471 208 471 343Q447 309 403.50 290.50Q360 272 309 272Q244 272 191 298.50Q138 325 107.50 377.50Q77 430 77 505Q77 615 141.50 680.50Q206 746 319 746Q455 746 512.50 655.50Q570 565 570 378Q570 249 548.50 167Q527 85 474 43Q421 1 327 1Q220 1 162 57Q104 113 97 198L202 198M329 368Q389 368 423.50 405.50Q458 443 458 505Q458 574 421.50 612.50Q385 651 322 651Q259 651 222.50 611.50Q186 572 186 508Q186 447 221.50 407.50Q257 368 329 368Z"  horiz-adv-x="635" vert-adv-y="1000"  />

      
      <glyph glyph-name="uni0950" unicode="&#x0950;" d="M572 906Q552 906 538.50 919.50Q525 933 525 953Q525 973 538.50 987Q552 1001 572 1001Q592 1001 605.50 987Q619 973 619 953Q619 933 605.50 919.50Q592 906 572 906M572 739Q468 739 413 790.50Q358 842 358 925L442 925Q442 880 476 847.50Q510 815 572 815Q633 815 667 847.50Q701 880 701 925L786 925Q786 842 730.50 790.50Q675 739 572 739M777 685Q884 685 931.50 622.50Q979 560 979 438L979 306Q979 165 915.50 93.50Q852 22 720 22Q681 22 621 32L621 120Q669 112 702 112Q799 112 838 161Q877 210 877 309L877 451Q877 522 854 559Q831 596 777 596Q726 596 703 565Q680 534 680 481Q680 378 636.50 334Q593 290 493 289Q508 252 508 210Q508 120 451 66Q394 12 301 12Q235 12 183.50 37.50Q132 63 104 109.50Q76 156 76 217L175 217Q175 167 208.50 134.50Q242 102 295 102Q348 102 379.50 134.50Q411 167 411 220Q411 267 379.50 301.50Q348 336 284 336L243 336L243 425L284 425Q340 425 370.50 456Q401 487 401 530Q401 580 369.50 609.50Q338 639 292 639Q244 639 212.50 611.50Q181 584 181 538L83 538Q83 595 109.50 638Q136 681 184 704.50Q232 728 293 728Q384 728 440.50 677.50Q497 627 497 544Q497 484 466.50 442Q436 400 379 385L379 382Q403 376 413 371L472 371Q528 371 555 395.50Q582 420 582 482Q582 580 627.50 632.50Q673 685 777 685Z"  horiz-adv-x="1061" vert-adv-y="1000"  />

      
      <glyph glyph-name="uni0970" unicode="&#x0970;" d="M246 508Q320 508 366 462.50Q412 417 412 344Q412 273 365.50 227.50Q319 182 246 182Q197 182 158.50 203Q120 224 98.50 261Q77 298 77 345Q77 417 124.50 462.50Q172 508 246 508M246 444Q201 444 171.50 416Q142 388 142 345Q142 302 171.50 274Q201 246 246 246Q290 246 317.50 273.50Q345 301 345 344Q345 388 317 416Q289 444 246 444Z"  horiz-adv-x="488" vert-adv-y="1000"  />

      
      <glyph glyph-name="uni0964" unicode="&#x0964;" d="M258 741L258 0L154 0L154 741L258 741Z"  horiz-adv-x="300" vert-adv-y="1000"  />

      
      <glyph glyph-name="uni0965" unicode="&#x0965;" d="M258 741L258 0L154 0L154 741L258 741M486 741L486 0L382 0L382 741L486 741Z"  horiz-adv-x="529" vert-adv-y="1000"  />

      
      <glyph glyph-name="uni20A8" unicode="&#x20A8;" d="M561 488Q561 418 518.50 362Q476 306 388 289L572 0L433 0L259 282L189 282L189 0L75 0L75 695L315 695Q395 695 450.50 667.50Q506 640 533.50 593Q561 546 561 488M189 371L315 371Q380 371 412 402Q444 433 444 488Q444 544 412 575Q380 606 315 606L189 606L189 371M736 397Q736 371 753 355Q770 339 796.50 330.50Q823 322 868 312Q929 298 966.50 284Q1004 270 1031 238.50Q1058 207 1058 153Q1058 106 1030.50 69Q1003 32 954 11.50Q905-9 843-9Q747-9 688 37Q629 83 623 168L741 168Q744 127 771 104Q798 81 843 81Q891 81 918.50 101.50Q946 122 946 155Q946 182 928.50 198Q911 214 884 222.50Q857 231 811 241Q751 255 714 268.50Q677 282 650.50 312Q624 342 624 393Q624 439 650 477Q676 515 725.50 537.50Q775 560 842 560Q934 560 990.50 512.50Q1047 465 1051 383L934 383Q931 424 905.50 447Q880 470 834 470Q788 470 762 449.50Q736 429 736 397Z"  horiz-adv-x="1147" vert-adv-y="1000"  />

      
      <glyph glyph-name="uni20B9" unicode="&#x20B9;" d="M474 538L474 524L590 524L590 442L468 442Q457 375 426.50 335.50Q396 296 340 278.50Q284 261 195 261L195 198Q195 143 218.50 111Q242 79 298 79Q400 79 400 194L505 194Q504 93 450.50 41.50Q397-10 296-10Q195-10 141.50 46Q88 102 88 203L88 340Q199 340 251 346.50Q303 353 328.50 374Q354 395 362 442L46 442L46 524L367 524L367 538L367 613L46 613L46 696L590 696L590 613L474 613L474 538Z"  horiz-adv-x="622" vert-adv-y="1000"  />

      
      <glyph glyph-name="uni200C" unicode="&#x200C;" d="M-23-230L-23 811L24 811L24-230L-23-230Z"   vert-adv-y="1000"  />

      
      <glyph glyph-name="uni200D" unicode="&#x200D;" d="M95 560L23 635L23-230L-24-230L-24 635L-93 562L-126 595L-33 688L-128 783L-95 816L0 721L96 816L128 784L32 688L128 593L95 560Z"   vert-adv-y="1000"  />

      
      <glyph glyph-name="uni25CC" unicode="&#x25CC;" d="M344 498Q344 479 332 467.50Q320 456 301 456Q282 456 270 467.50Q258 479 258 498Q258 517 270 528.50Q282 540 301 540Q320 540 332 528.50Q344 517 344 498M465 483Q465 464 453 452.50Q441 441 422 441Q403 441 391 452.50Q379 464 379 483Q379 502 391 513.50Q403 525 422 525Q441 525 453 513.50Q465 502 465 483M227 456Q227 437 215 425.50Q203 414 184 414Q165 414 153 425.50Q141 437 141 456Q141 475 153 486.50Q165 498 184 498Q203 498 215 486.50Q227 475 227 456M557 409Q557 390 545 378.50Q533 367 514 367Q495 367 483 378.50Q471 390 471 409Q471 428 483 439.50Q495 451 514 451Q533 451 545 439.50Q557 428 557 409M151 357Q151 338 139 326.50Q127 315 108 315Q89 315 77 326.50Q65 338 65 357Q65 376 77 387.50Q89 399 108 399Q127 399 139 387.50Q151 376 151 357M601 295Q601 276 589 264.50Q577 253 558 253Q539 253 527 264.50Q515 276 515 295Q515 314 527 325.50Q539 337 558 337Q577 337 589 325.50Q601 314 601 295M136 236Q136 217 124 205.50Q112 194 93 194Q74 194 62 205.50Q50 217 50 236Q50 255 62 266.50Q74 278 93 278Q112 278 124 266.50Q136 255 136 236M591 175Q591 156 579 144.50Q567 133 548 133Q529 133 517 144.50Q505 156 505 175Q505 194 517 205.50Q529 217 548 217Q567 217 579 205.50Q591 194 591 175M181 123Q181 104 169 92.50Q157 81 138 81Q119 81 107 92.50Q95 104 95 123Q95 142 107 153.50Q119 165 138 165Q157 165 169 153.50Q181 142 181 123M518 79Q518 60 506 48.50Q494 37 475 37Q456 37 444 48.50Q432 60 432 79Q432 98 444 109.50Q456 121 475 121Q494 121 506 109.50Q518 98 518 79M279 47Q279 28 267 16.50Q255 5 236 5Q217 5 205 16.50Q193 28 193 47Q193 66 205 77.50Q217 89 236 89Q255 89 267 77.50Q279 66 279 47M403 33Q403 14 391 2.50Q379-9 360-9Q341-9 329 2.50Q317 14 317 33Q317 52 329 63.50Q341 75 360 75Q379 75 391 63.50Q403 52 403 33Z"  horiz-adv-x="651" vert-adv-y="1000"  />

      
      <glyph glyph-name="uni21" unicode="&#x21;" d="M218 695L205 210L110 210L97 695L218 695M161-7Q130-7 109 14Q88 35 88 66Q88 97 109 118Q130 139 161 139Q191 139 212 118Q233 97 233 66Q233 35 212 14Q191-7 161-7Z"  horiz-adv-x="321" vert-adv-y="1000"  />

      
      <glyph glyph-name="uni22" unicode="&#x22;" d="M137 797L125 592L47 592L34 797L137 797M288 797L276 592L198 592L185 797L288 797Z"  horiz-adv-x="323" vert-adv-y="1000"  />

      
      <glyph glyph-name="uni23" unicode="&#x23;" d="M658 458L621 285L753 285L753 185L600 185L560 0L451 0L491 185L295 185L255 0L146 0L186 185L31 185L31 285L207 285L244 458L90 458L90 558L265 558L304 740L413 740L374 558L570 558L609 740L718 740L679 558L812 558L812 458L658 458M549 458L353 458L316 285L512 285L549 458Z"  horiz-adv-x="872" vert-adv-y="1000"  />

      
      <glyph glyph-name="uni24" unicode="&#x24;" d="M544 198Q544 148 519.50 104Q495 60 447.50 30Q400 0 335-6L335-87L270-87L270-6Q176 3 118 53Q60 103 60 185L182 185Q185 146 207 120.50Q229 95 270 88L270 308Q203 325 161 342.50Q119 360 89.50 398Q60 436 60 502Q60 585 118 639.50Q176 694 270 703L270 784L335 784L335 703Q423 695 476.50 647.50Q530 600 537 517L415 517Q412 548 391 572.50Q370 597 335 606L335 390Q402 374 444 356.50Q486 339 515 301.50Q544 264 544 198M176 508Q176 467 200.50 444Q225 421 270 407L270 609Q227 604 201.50 578Q176 552 176 508M335 88Q379 95 404 123.50Q429 152 429 192Q429 232 404.50 254.50Q380 277 335 291L335 88Z"  horiz-adv-x="650" vert-adv-y="1000"  />

      
      <glyph glyph-name="uni25" unicode="&#x25;" d="M42 553Q42 626 84.50 667.50Q127 709 194 709Q261 709 303.50 667.50Q346 626 346 553Q346 480 303.50 438Q261 396 194 396Q127 396 84.50 438Q42 480 42 553M652 696L253 0L141 0L540 696L652 696M194 640Q131 640 131 553Q131 465 194 465Q224 465 240.50 486.50Q257 508 257 553Q257 640 194 640M449 144Q449 217 491.50 258.50Q534 300 601 300Q667 300 709.50 258.50Q752 217 752 144Q752 71 709.50 29Q667-13 601-13Q534-13 491.50 29Q449 71 449 144M600 231Q537 231 537 144Q537 57 600 57Q663 57 663 144Q663 231 600 231Z"  horiz-adv-x="794" vert-adv-y="1000"  />

      
      <glyph glyph-name="uni26" unicode="&#x26;" d="M612 0L526 86Q476 36 417 11.50Q358-13 285-13Q211-13 154 13Q97 39 66 87.50Q35 136 35 200Q35 272 76 328.50Q117 385 198 418Q169 453 157 483.50Q145 514 145 551Q145 597 168.50 633Q192 669 236 690Q280 711 338 711Q397 711 438.50 688.50Q480 666 500.50 627Q521 588 517 540L403 540Q404 577 385 597.50Q366 618 333 618Q300 618 279.50 598.50Q259 579 259 551Q259 524 274.50 497.50Q290 471 329 429L513 246L584 363L707 363L617 209L592 168L761 0L612 0M285 84Q379 84 451 161L267 346Q149 299 149 204Q149 153 187 118.50Q225 84 285 84Z"  horiz-adv-x="761" vert-adv-y="1000"  />

      
      <glyph glyph-name="uni27" unicode="&#x27;" d="M137 797L125 592L47 592L34 797L137 797Z"  horiz-adv-x="172" vert-adv-y="1000"  />

      
      <glyph glyph-name="uni28" unicode="&#x28;" d="M327-186Q229-92 176.50 53Q124 198 124 364Q124 534 180.50 685Q237 836 347 934L465 934L465 923Q350 817 292 669Q234 521 234 364Q234 213 288 72Q342-69 445-175L445-186L327-186Z"  horiz-adv-x="492" vert-adv-y="1000"  />

      
      <glyph glyph-name="uni29" unicode="&#x29;" d="M47-186L47-175Q150-69 204 72Q258 213 258 364Q258 521 200 669Q142 817 27 923L27 934L145 934Q255 836 311.50 685Q368 534 368 364Q368 198 315.50 53Q263-92 165-186L47-186Z"  horiz-adv-x="492" vert-adv-y="1000"  />

      
      <glyph glyph-name="uni2a" unicode="&#x2a;" d="M392 679L437 599L300 548L437 497L391 415L277 505L298 360L206 360L225 505L111 413L63 498L199 549L63 598L109 680L226 590L206 736L299 736L277 590L392 679Z"  horiz-adv-x="504" vert-adv-y="1000"  />

      
      <glyph glyph-name="uni2b" unicode="&#x2b;" d="M612 313L410 313L410 106L304 106L304 313L102 313L102 409L304 409L304 616L410 616L410 409L612 409L612 313Z"  horiz-adv-x="714" vert-adv-y="1000"  />

      
      <glyph glyph-name="uni2c" unicode="&#x2c;" d="M200 137L79-139L5-139L76 137L200 137Z"  horiz-adv-x="225" vert-adv-y="1000"  />

      
      <glyph glyph-name="uni2d" unicode="&#x2d;" d="M498 410L498 314L87 314L87 410L498 410Z"  horiz-adv-x="585" vert-adv-y="1000"  />

      
      <glyph glyph-name="uni2e" unicode="&#x2e;" d="M121-7Q90-7 69 14Q48 35 48 66Q48 97 69 118Q90 139 121 139Q151 139 172 118Q193 97 193 66Q193 35 172 14Q151-7 121-7Z"  horiz-adv-x="241" vert-adv-y="1000"  />

      
      <glyph glyph-name="uni2f" unicode="&#x2f;" d="M445 944L173-175L61-175L332 944L445 944Z"  horiz-adv-x="514" vert-adv-y="1000"  />

      
      <glyph glyph-name="uni30" unicode="&#x30;" d="M60 374Q60 547 118.50 644.50Q177 742 320 742Q463 742 521.50 644.50Q580 547 580 374Q580 199 521.50 100.50Q463 2 320 2Q177 2 118.50 100.50Q60 199 60 374M468 374Q468 455 457.50 511Q447 567 415 602.50Q383 638 320 638Q257 638 225 602.50Q193 567 182.50 511Q172 455 172 374Q172 290 182 233Q192 176 224.50 141Q257 106 320 106Q383 106 415.50 141Q448 176 458 233Q468 290 468 374Z"  horiz-adv-x="641" vert-adv-y="1000"  />

      
      <glyph glyph-name="uni31" unicode="&#x31;" d="M45 625L45 729L253 729L253 0L138 0L138 625L45 625Z"  horiz-adv-x="350" vert-adv-y="1000"  />

      
      <glyph glyph-name="uni32" unicode="&#x32;" d="M123 155Q219 238 274.50 291.50Q330 345 367 403Q404 461 404 519Q404 579 375.50 613Q347 647 286 647Q227 647 194.50 609.50Q162 572 160 509L50 509Q53 623 118.50 683.50Q184 744 285 744Q394 744 455.50 684Q517 624 517 524Q517 452 480.50 385.50Q444 319 393.50 266.50Q343 214 265 145L220 105L537 105L537 10L51 10L51 93L123 155Z"  horiz-adv-x="577" vert-adv-y="1000"  />

      
      <glyph glyph-name="uni33" unicode="&#x33;" d="M58 549Q64 642 129.50 694Q195 746 297 746Q367 746 418 721Q469 696 495 653Q521 610 521 556Q521 494 488 450Q455 406 409 391L409 387Q468 369 501 321.50Q534 274 534 200Q534 141 507 95Q480 49 427 22.50Q374-4 300-4Q192-4 122.50 51.50Q53 107 48 211L158 211Q162 158 199 124.50Q236 91 299 91Q360 91 393 124.50Q426 158 426 211Q426 281 381.50 310.50Q337 340 245 340L219 340L219 434L246 434Q327 435 369.50 461Q412 487 412 543Q412 591 381 619.50Q350 648 293 648Q237 648 206 619.50Q175 591 169 549L58 549Z"  horiz-adv-x="594" vert-adv-y="1000"  />

      
      <glyph glyph-name="uni34" unicode="&#x34;" d="M46 152L46 238L382 720L520 720L520 251L613 251L613 152L520 152L520 0L408 0L408 152L46 152M413 604L177 251L413 251L413 604Z"  horiz-adv-x="647" vert-adv-y="1000"  />

      
      <glyph glyph-name="uni35" unicode="&#x35;" d="M530 631L195 631L195 432Q216 460 257.50 479Q299 498 346 498Q430 498 482.50 462Q535 426 557.50 371Q580 316 580 255Q580 181 551.50 123.50Q523 66 466.50 33Q410 0 328 0Q219 0 153 54Q87 108 74 197L185 197Q196 150 234 122.50Q272 95 329 95Q400 95 435.50 138Q471 181 471 252Q471 324 435 362.50Q399 401 329 401Q280 401 246.50 376.50Q213 352 198 310L90 310L90 731L530 731L530 631Z"  horiz-adv-x="639" vert-adv-y="1000"  />

      
      <glyph glyph-name="uni36" unicode="&#x36;" d="M452 560Q441 606 412 629Q383 652 331 652Q252 652 213 591.50Q174 531 172 391Q198 435 248 459Q298 483 356 483Q422 483 472.50 454.50Q523 426 551.50 372Q580 318 580 243Q580 173 552.50 118Q525 63 471 31.50Q417 0 341 0Q238 0 179.50 45.50Q121 91 97.50 174Q74 257 74 381Q74 747 332 747Q432 747 489.50 693Q547 639 557 560L452 560M331 387Q270 387 227.50 350.50Q185 314 185 245Q185 176 224.50 135.50Q264 95 335 95Q398 95 434.50 134Q471 173 471 238Q471 306 435.50 346.50Q400 387 331 387Z"  horiz-adv-x="642" vert-adv-y="1000"  />

      
      <glyph glyph-name="uni37" unicode="&#x37;" d="M522 641L244 0L129 0L410 629L40 629L40 726L522 726L522 641Z"  horiz-adv-x="560" vert-adv-y="1000"  />

      
      <glyph glyph-name="uni38" unicode="&#x38;" d="M183 381Q79 433 79 545Q79 599 106 644Q133 689 187 715.50Q241 742 319 742Q396 742 450.50 715.50Q505 689 532 644Q559 599 559 545Q559 489 530.50 446.50Q502 404 455 381Q512 360 545 312.50Q578 265 578 201Q578 136 545 86Q512 36 453 9Q394-18 319-18Q244-18 185.50 9Q127 36 94 86Q61 136 61 201Q61 266 94 313Q127 360 183 381M450 531Q450 587 415 617Q380 647 319 647Q259 647 224 617Q189 587 189 530Q189 480 225.50 448.50Q262 417 319 417Q376 417 413 449Q450 481 450 531M319 331Q253 331 211.50 298.50Q170 266 170 205Q170 148 210 112.50Q250 77 319 77Q387 77 426.50 113Q466 149 466 205Q466 265 425.50 298Q385 331 319 331Z"  horiz-adv-x="638" vert-adv-y="1000"  />

      
      <glyph glyph-name="uni39" unicode="&#x39;" d="M202 198Q212 148 245 122Q278 96 334 96Q405 96 438 152Q471 208 471 343Q447 309 403.50 290.50Q360 272 309 272Q244 272 191 298.50Q138 325 107.50 377.50Q77 430 77 505Q77 615 141.50 680.50Q206 746 319 746Q455 746 512.50 655.50Q570 565 570 378Q570 249 548.50 167Q527 85 474 43Q421 1 327 1Q220 1 162 57Q104 113 97 198L202 198M329 368Q389 368 423.50 405.50Q458 443 458 505Q458 574 421.50 612.50Q385 651 322 651Q259 651 222.50 611.50Q186 572 186 508Q186 447 221.50 407.50Q257 368 329 368Z"  horiz-adv-x="635" vert-adv-y="1000"  />

      
      <glyph glyph-name="uni3a" unicode="&#x3a;" d="M121-7Q90-7 69 14Q48 35 48 66Q48 97 69 118Q90 139 121 139Q151 139 172 118Q193 97 193 66Q193 35 172 14Q151-7 121-7M121 413Q90 413 69 434Q48 455 48 486Q48 517 69 538Q90 559 121 559Q151 559 172 538Q193 517 193 486Q193 455 172 434Q151 413 121 413Z"  horiz-adv-x="245" vert-adv-y="1000"  />

      
      <glyph glyph-name="uni3b" unicode="&#x3b;" d="M143 413Q112 413 91 434Q70 455 70 486Q70 517 91 538Q112 559 143 559Q173 559 194 538Q215 517 215 486Q215 455 194 434Q173 413 143 413M227 137L106-139L32-139L103 137L227 137Z"  horiz-adv-x="304" vert-adv-y="1000"  />

      
      <glyph glyph-name="uni3c" unicode="&#x3c;" d="M328 134L98 361L328 588L472 588L241 361L472 134L328 134Z"  horiz-adv-x="612" vert-adv-y="1000"  />

      
      <glyph glyph-name="uni3d" unicode="&#x3d;" d="M653 523L653 427L121 427L121 523L653 523M653 296L653 200L121 200L121 296L653 296Z"  horiz-adv-x="774" vert-adv-y="1000"  />

      
      <glyph glyph-name="uni3e" unicode="&#x3e;" d="M112 588L256 588L486 361L256 134L112 134L343 361L112 588Z"  horiz-adv-x="590" vert-adv-y="1000"  />

      
      <glyph glyph-name="uni3f" unicode="&#x3f;" d="M262 705Q364 705 425.50 649Q487 593 487 496Q487 395 423 344Q359 293 253 293L249 214L150 214L145 371L178 371Q275 371 326.50 397Q378 423 378 496Q378 549 347.50 579Q317 609 263 609Q209 609 178 580Q147 551 147 499L40 499Q40 559 67 606Q94 653 144.50 679Q195 705 262 705M198-7Q167-7 146 14Q125 35 125 66Q125 97 146 118Q167 139 198 139Q228 139 249 118Q270 97 270 66Q270 35 249 14Q228-7 198-7Z"  horiz-adv-x="538" vert-adv-y="1000"  />

      
      <glyph glyph-name="uni40" unicode="&#x40;" d="M588 646Q702 646 785 604Q868 562 911.50 486.50Q955 411 955 311Q955 231 927.50 158Q900 85 848.50 39Q797-7 727-7Q676-7 647 15.50Q618 38 611 79Q580 39 533 16Q486-7 435-7Q358-7 314.50 39.50Q271 86 271 166Q271 242 302.50 308Q334 374 391 413.50Q448 453 519 453Q606 453 641 394L650 444L749 444L699 158Q696 137 696 121Q696 95 706.50 82Q717 69 744 69Q782 69 809 106.50Q836 144 849.50 199Q863 254 863 306Q863 433 789 500Q715 567 574 567Q456 567 362.50 511Q269 455 216 357Q163 259 163 139Q163 11 239-56Q315-123 456-123Q551-123 622-88L637-164Q546-203 433-203Q324-203 242-162Q160-121 115-45.50Q70 30 70 130Q70 273 136.50 391Q203 509 321 577.50Q439 646 588 646M470 81Q512 81 546.50 105.50Q581 130 601 170.50Q621 211 621 257Q621 305 594.50 335.50Q568 366 520 366Q477 366 444.50 339.50Q412 313 394.50 271Q377 229 377 183Q377 136 400 108.50Q423 81 470 81Z"  horiz-adv-x="1025" vert-adv-y="1000"  />

      
      <glyph glyph-name="uni41" unicode="&#x41;" d="M494 142L203 142L153 0L34 0L283 696L415 696L664 0L544 0L494 142M462 235L349 558L235 235L462 235Z"  horiz-adv-x="697" vert-adv-y="1000"  />

      
      <glyph glyph-name="uni42" unicode="&#x42;" d="M447 357Q503 347 542 298Q581 249 581 187Q581 134 553.50 91.50Q526 49 474 24.50Q422 0 353 0L75 0L75 695L340 695Q411 695 462 671Q513 647 539 606.50Q565 566 565 516Q565 456 533 416Q501 376 447 357M189 403L330 403Q386 403 417.50 428.50Q449 454 449 502Q449 549 417.50 575.50Q386 602 330 602L189 602L189 403M343 93Q401 93 434 121Q467 149 467 199Q467 250 432 280Q397 310 339 310L189 310L189 93L343 93Z"  horiz-adv-x="630" vert-adv-y="1000"  />

      
      <glyph glyph-name="uni43" unicode="&#x43;" d="M37 349Q37 451 84.50 532Q132 613 213.50 658.50Q295 704 392 704Q503 704 589.50 649.50Q676 595 715 495L578 495Q551 550 503 577Q455 604 392 604Q323 604 269 573Q215 542 184.50 484Q154 426 154 349Q154 272 184.50 214Q215 156 269 124.50Q323 93 392 93Q455 93 503 120Q551 147 578 202L715 202Q676 102 589.50 48Q503-6 392-6Q294-6 213 39.50Q132 85 84.50 166Q37 247 37 349Z"  horiz-adv-x="773" vert-adv-y="1000"  />

      
      <glyph glyph-name="uni44" unicode="&#x44;" d="M302 695Q413 695 496.50 652.50Q580 610 625.50 530.50Q671 451 671 345Q671 239 625.50 161Q580 83 496.50 41.50Q413 0 302 0L75 0L75 695L302 695M302 93Q424 93 489 159Q554 225 554 345Q554 466 489 534Q424 602 302 602L189 602L189 93L302 93Z"  horiz-adv-x="709" vert-adv-y="1000"  />

      
      <glyph glyph-name="uni45" unicode="&#x45;" d="M189 603L189 399L429 399L429 306L189 306L189 93L459 93L459 0L75 0L75 696L459 696L459 603L189 603Z"  horiz-adv-x="524" vert-adv-y="1000"  />

      
      <glyph glyph-name="uni46" unicode="&#x46;" d="M484 695L484 602L189 602L189 397L419 397L419 304L189 304L189 0L75 0L75 695L484 695Z"  horiz-adv-x="515" vert-adv-y="1000"  />

      
      <glyph glyph-name="uni47" unicode="&#x47;" d="M578 495Q551 547 503 573.50Q455 600 392 600Q323 600 269 569Q215 538 184.50 481Q154 424 154 349Q154 274 184.50 216.50Q215 159 269 128Q323 97 392 97Q485 97 543 149Q601 201 614 290L353 290L353 381L736 381L736 292Q725 211 678.50 143Q632 75 557.50 34.50Q483-6 392-6Q294-6 213 39.50Q132 85 84.50 166Q37 247 37 349Q37 451 84.50 532Q132 613 213.50 658.50Q295 704 392 704Q503 704 589.50 649.50Q676 595 715 495L578 495Z"  horiz-adv-x="773" vert-adv-y="1000"  />

      
      <glyph glyph-name="uni48" unicode="&#x48;" d="M630 695L630 0L516 0L516 304L189 304L189 0L75 0L75 695L189 695L189 397L516 397L516 695L630 695Z"  horiz-adv-x="705" vert-adv-y="1000"  />

      
      <glyph glyph-name="uni49" unicode="&#x49;" d="M189 695L189 0L75 0L75 695L189 695Z"  horiz-adv-x="264" vert-adv-y="1000"  />

      
      <glyph glyph-name="uni4a" unicode="&#x4a;" d="M454 695L454 194Q454 101 397.50 47Q341-7 249-7Q157-7 100.50 47Q44 101 44 194L159 194Q160 148 182.50 121Q205 94 249 94Q293 94 316 121.50Q339 149 339 194L339 695L454 695Z"  horiz-adv-x="564" vert-adv-y="1000"  />

      
      <glyph glyph-name="uni4b" unicode="&#x4b;" d="M458 0L189 311L189 0L75 0L75 695L189 695L189 378L459 695L602 695L300 347L607 0L458 0Z"  horiz-adv-x="633" vert-adv-y="1000"  />

      
      <glyph glyph-name="uni4c" unicode="&#x4c;" d="M189 92L424 92L424 0L75 0L75 695L189 695L189 92Z"  horiz-adv-x="444" vert-adv-y="1000"  />

      
      <glyph glyph-name="uni4d" unicode="&#x4d;" d="M807 695L807 0L693 0L693 476L481 0L402 0L189 476L189 0L75 0L75 695L198 695L442 150L685 695L807 695Z"  horiz-adv-x="882" vert-adv-y="1000"  />

      
      <glyph glyph-name="uni4e" unicode="&#x4e;" d="M646 0L532 0L189 519L189 0L75 0L75 696L189 696L532 178L532 696L646 696L646 0Z"  horiz-adv-x="721" vert-adv-y="1000"  />

      
      <glyph glyph-name="uni4f" unicode="&#x4f;" d="M392-7Q295-7 213.50 38.50Q132 84 84.50 165.50Q37 247 37 349Q37 451 84.50 532Q132 613 213.50 658.50Q295 704 392 704Q490 704 571.50 658.50Q653 613 700 532Q747 451 747 349Q747 247 700 165.50Q653 84 571.50 38.50Q490-7 392-7M392 92Q461 92 515 123.50Q569 155 599.50 213.50Q630 272 630 349Q630 426 599.50 484Q569 542 515 573Q461 604 392 604Q323 604 269 573Q215 542 184.50 484Q154 426 154 349Q154 272 184.50 213.50Q215 155 269 123.50Q323 92 392 92Z"  horiz-adv-x="784" vert-adv-y="1000"  />

      
      <glyph glyph-name="uni50" unicode="&#x50;" d="M561 488Q561 435 536 388Q511 341 456 311.50Q401 282 315 282L189 282L189 0L75 0L75 695L315 695Q395 695 450.50 667.50Q506 640 533.50 593Q561 546 561 488M315 375Q380 375 412 404.50Q444 434 444 488Q444 602 315 602L189 602L189 375L315 375Z"  horiz-adv-x="595" vert-adv-y="1000"  />

      
      <glyph glyph-name="uni51" unicode="&#x51;" d="M613-126L491 6Q446-7 392-7Q295-7 213.50 38.50Q132 84 84.50 165.50Q37 247 37 349Q37 451 84.50 532Q132 613 213.50 658.50Q295 704 392 704Q490 704 571.50 658.50Q653 613 700 532Q747 451 747 349Q747 253 705.50 175.50Q664 98 591 51L758-126L613-126M154 349Q154 272 184.50 213.50Q215 155 269 123.50Q323 92 392 92Q461 92 515 123.50Q569 155 599.50 213.50Q630 272 630 349Q630 426 599.50 484Q569 542 515 573Q461 604 392 604Q323 604 269 573Q215 542 184.50 484Q154 426 154 349Z"  horiz-adv-x="787" vert-adv-y="1000"  />

      
      <glyph glyph-name="uni52" unicode="&#x52;" d="M436 0L276 278L189 278L189 0L75 0L75 695L315 695Q395 695 450.50 667Q506 639 533.50 592Q561 545 561 487Q561 419 521.50 363.50Q482 308 400 288L572 0L436 0M189 369L315 369Q379 369 411.50 401Q444 433 444 487Q444 541 412 571.50Q380 602 315 602L189 602L189 369Z"  horiz-adv-x="632" vert-adv-y="1000"  />

      
      <glyph glyph-name="uni53" unicode="&#x53;" d="M304-7Q234-7 178 17.50Q122 42 90 87Q58 132 58 192L180 192Q184 147 215.50 118Q247 89 304 89Q363 89 396 117.50Q429 146 429 191Q429 226 408.50 248Q388 270 357.50 282Q327 294 273 308Q205 326 162.50 344.50Q120 363 90 402Q60 441 60 506Q60 566 90 611Q120 656 174 680Q228 704 299 704Q400 704 464.50 653.50Q529 603 536 515L410 515Q407 553 374 580Q341 607 287 607Q238 607 207 582Q176 557 176 510Q176 478 195.50 457.50Q215 437 245 425Q275 413 327 399Q396 380 439.50 361Q483 342 513.50 302.50Q544 263 544 197Q544 144 515.50 97Q487 50 432.50 21.50Q378-7 304-7Z"  horiz-adv-x="604" vert-adv-y="1000"  />

      
      <glyph glyph-name="uni54" unicode="&#x54;" d="M524 695L524 602L339 602L339 0L225 0L225 602L39 602L39 695L524 695Z"  horiz-adv-x="564" vert-adv-y="1000"  />

      
      <glyph glyph-name="uni55" unicode="&#x55;" d="M188 695L188 252Q188 173 229.50 133Q271 93 345 93Q420 93 461.50 133Q503 173 503 252L503 695L617 695L617 254Q617 169 580 110Q543 51 481 22Q419-7 344-7Q269-7 207.50 22Q146 51 110 110Q74 169 74 254L74 695L188 695Z"  horiz-adv-x="690" vert-adv-y="1000"  />

      
      <glyph glyph-name="uni56" unicode="&#x56;" d="M674 695L413 0L281 0L19 695L141 695L347 117L554 695L674 695Z"  horiz-adv-x="694" vert-adv-y="1000"  />

      
      <glyph glyph-name="uni57" unicode="&#x57;" d="M980 695L774 0L645 0L499 526L344 0L216-1L19 695L140 695L284 129L440 695L568 695L713 132L858 695L980 695Z"  horiz-adv-x="999" vert-adv-y="1000"  />

      
      <glyph glyph-name="uni58" unicode="&#x58;" d="M394 347L610 0L482 0L325 252L178 0L51 0L267 347L50 695L178 695L336 441L484 695L611 695L394 347Z"  horiz-adv-x="660" vert-adv-y="1000"  />

      
      <glyph glyph-name="uni59" unicode="&#x59;" d="M590 695L360 252L360 0L246 0L246 252L15 695L142 695L303 354L464 695L590 695Z"  horiz-adv-x="605" vert-adv-y="1000"  />

      
      <glyph glyph-name="uni5a" unicode="&#x5a;" d="M185 99L508 99L508 0L50 0L50 89L372 596L50 596L50 695L508 695L508 606L185 99Z"  horiz-adv-x="558" vert-adv-y="1000"  />

      
      <glyph glyph-name="uni5b" unicode="&#x5b;" d="M356 934L356 840L255 840L255-91L356-91L356-186L148-186L148 934L356 934Z"  horiz-adv-x="485" vert-adv-y="1000"  />

      
      <glyph glyph-name="uni5c" unicode="&#x5c;" d="M464-175L164 944L276 944L576-175L464-175Z"  horiz-adv-x="717" vert-adv-y="1000"  />

      
      <glyph glyph-name="uni5d" unicode="&#x5d;" d="M336-186L128-186L128-91L229-91L229 840L128 840L128 934L336 934L336-186Z"  horiz-adv-x="484" vert-adv-y="1000"  />

      
      <glyph glyph-name="uni5e" unicode="&#x5e;" d="M154 168L36 168L273 696L381 696L619 168L500 168L328 558L154 168Z"  horiz-adv-x="654" vert-adv-y="1000"  />

      
      <glyph glyph-name="uni5f" unicode="&#x5f;" d="M684-40L684-146L126-146L126-40L684-40Z"  horiz-adv-x="798" vert-adv-y="1000"  />

      
      <glyph glyph-name="uni60" unicode="&#x60;" d="M231 674L231 590L10 699L10 796L231 674Z"  horiz-adv-x="254" vert-adv-y="1000"  />

      
      <glyph glyph-name="uni61" unicode="&#x61;" d="M37 278Q37 361 71.50 425Q106 489 165.50 524.50Q225 560 297 560Q362 560 410.50 534.50Q459 509 488 471L488 551L603 551L603 0L488 0L488 82Q459 43 409 17Q359-9 295-9Q224-9 165 27.50Q106 64 71.50 129.50Q37 195 37 278M488 276Q488 333 464.50 375Q441 417 403 439Q365 461 321 461Q277 461 239 439.50Q201 418 177.50 376.50Q154 335 154 278Q154 221 177.50 178Q201 135 239.50 112.50Q278 90 321 90Q365 90 403 112Q441 134 464.50 176.50Q488 219 488 276Z"  horiz-adv-x="678" vert-adv-y="1000"  />

      
      <glyph glyph-name="uni62" unicode="&#x62;" d="M189 469Q218 509 268.50 534.50Q319 560 381 560Q454 560 513 525Q572 490 606 425.50Q640 361 640 278Q640 195 606 129.50Q572 64 512.50 27.50Q453-9 381-9Q317-9 267.50 16Q218 41 189 80L189 0L75 0L75 740L189 740L189 469M524 278Q524 335 500.50 376.50Q477 418 438.50 439.50Q400 461 356 461Q313 461 274.50 439Q236 417 212.50 375Q189 333 189 276Q189 219 212.50 176.50Q236 134 274.50 112Q313 90 356 90Q400 90 438.50 112.50Q477 135 500.50 178Q524 221 524 278Z"  horiz-adv-x="678" vert-adv-y="1000"  />

      
      <glyph glyph-name="uni63" unicode="&#x63;" d="M37 276Q37 361 71.50 425.50Q106 490 167 525Q228 560 307 560Q407 560 472.50 512.50Q538 465 561 377L438 377Q423 418 390 441Q357 464 307 464Q237 464 195.50 414.50Q154 365 154 276Q154 187 195.50 137Q237 87 307 87Q406 87 438 174L561 174Q537 90 471 40.50Q405-9 307-9Q228-9 167 26.50Q106 62 71.50 126.50Q37 191 37 276Z"  horiz-adv-x="600" vert-adv-y="1000"  />

      
      <glyph glyph-name="uni64" unicode="&#x64;" d="M37 278Q37 361 71.50 425Q106 489 165.50 524.50Q225 560 298 560Q352 560 404.50 536.50Q457 513 488 474L488 740L603 740L603 0L488 0L488 83Q460 43 410.50 17Q361-9 297-9Q225-9 165.50 27.50Q106 64 71.50 129.50Q37 195 37 278M488 276Q488 333 464.50 375Q441 417 403 439Q365 461 321 461Q277 461 239 439.50Q201 418 177.50 376.50Q154 335 154 278Q154 221 177.50 178Q201 135 239.50 112.50Q278 90 321 90Q365 90 403 112Q441 134 464.50 176.50Q488 219 488 276Z"  horiz-adv-x="678" vert-adv-y="1000"  />

      
      <glyph glyph-name="uni65" unicode="&#x65;" d="M580 289Q580 258 576 233L155 233Q160 167 204 127Q248 87 312 87Q404 87 442 164L565 164Q540 88 474.50 39.50Q409-9 312-9Q233-9 170.50 26.50Q108 62 72.50 126.50Q37 191 37 276Q37 361 71.50 425.50Q106 490 168.50 525Q231 560 312 560Q390 560 451 526Q512 492 546 430.50Q580 369 580 289M461 325Q460 388 416 426Q372 464 307 464Q248 464 206 426.50Q164 389 156 325L461 325Z"  horiz-adv-x="617" vert-adv-y="1000"  />

      
      <glyph glyph-name="uni66" unicode="&#x66;" d="M306 458L204 458L204 0L89 0L89 458L24 458L24 551L89 551L89 590Q89 685 139.50 728.50Q190 772 298 772L298 677Q246 677 225 657.50Q204 638 204 590L204 551L306 551L306 458Z"  horiz-adv-x="332" vert-adv-y="1000"  />

      
      <glyph glyph-name="uni67" unicode="&#x67;" d="M297 560Q361 560 410.50 534.50Q460 509 488 471L488 551L603 551L603-9Q603-85 571-144.50Q539-204 478.50-238Q418-272 334-272Q222-272 148-219.50Q74-167 64-77L177-77Q190-120 232.50-146.50Q275-173 334-173Q403-173 445.50-131Q488-89 488-9L488 83Q459 44 409.50 17.50Q360-9 297-9Q225-9 165.50 27.50Q106 64 71.50 129.50Q37 195 37 278Q37 361 71.50 425Q106 489 165.50 524.50Q225 560 297 560M488 276Q488 333 464.50 375Q441 417 403 439Q365 461 321 461Q277 461 239 439.50Q201 418 177.50 376.50Q154 335 154 278Q154 221 177.50 178Q201 135 239.50 112.50Q278 90 321 90Q365 90 403 112Q441 134 464.50 176.50Q488 219 488 276Z"  horiz-adv-x="678" vert-adv-y="1000"  />

      
      <glyph glyph-name="uni68" unicode="&#x68;" d="M360 560Q423 560 472.50 533Q522 506 550.50 453Q579 400 579 325L579 0L466 0L466 308Q466 382 429 421.50Q392 461 328 461Q264 461 226.50 421.50Q189 382 189 308L189 0L75 0L75 740L189 740L189 487Q218 522 262.50 541Q307 560 360 560Z"  horiz-adv-x="649" vert-adv-y="1000"  />

      
      <glyph glyph-name="uni69" unicode="&#x69;" d="M133 624Q102 624 81 645Q60 666 60 697Q60 728 81 749Q102 770 133 770Q163 770 184 749Q205 728 205 697Q205 666 184 645Q163 624 133 624M189 551L189 0L75 0L75 551L189 551Z"  horiz-adv-x="264" vert-adv-y="1000"  />

      
      <glyph glyph-name="uni6a" unicode="&#x6a;" d="M133 624Q102 624 81 645Q60 666 60 697Q60 728 81 749Q102 770 133 770Q163 770 184 749Q205 728 205 697Q205 666 184 645Q163 624 133 624M189-108Q189-189 148.50-225.50Q108-262 31-262L-28-262L-28-166L11-166Q46-166 60.50-152.50Q75-139 75-108L75 551L189 551L189-108Z"  horiz-adv-x="264" vert-adv-y="1000"  />

      
      <glyph glyph-name="uni6b" unicode="&#x6b;" d="M293 275L547 0L393 0L189 237L189 0L75 0L75 740L189 740L189 310L389 551L547 551L293 275Z"  horiz-adv-x="554" vert-adv-y="1000"  />

      
      <glyph glyph-name="uni6c" unicode="&#x6c;" d="M189 740L189 0L75 0L75 740L189 740Z"  horiz-adv-x="264" vert-adv-y="1000"  />

      
      <glyph glyph-name="uni6d" unicode="&#x6d;" d="M742 560Q807 560 858.50 533Q910 506 939.50 453Q969 400 969 325L969 0L856 0L856 308Q856 382 819 421.50Q782 461 718 461Q654 461 616.50 421.50Q579 382 579 308L579 0L466 0L466 308Q466 382 429 421.50Q392 461 328 461Q264 461 226.50 421.50Q189 382 189 308L189 0L75 0L75 551L189 551L189 488Q217 522 260 541Q303 560 352 560Q418 560 470 532Q522 504 550 451Q575 501 628 530.50Q681 560 742 560Z"  horiz-adv-x="1039" vert-adv-y="1000"  />

      
      <glyph glyph-name="uni6e" unicode="&#x6e;" d="M353 560Q418 560 469.50 533Q521 506 550 453Q579 400 579 325L579 0L466 0L466 308Q466 382 429 421.50Q392 461 328 461Q264 461 226.50 421.50Q189 382 189 308L189 0L75 0L75 551L189 551L189 488Q217 522 260.50 541Q304 560 353 560Z"  horiz-adv-x="649" vert-adv-y="1000"  />

      
      <glyph glyph-name="uni6f" unicode="&#x6f;" d="M314-9Q236-9 173 26.50Q110 62 74 126.50Q38 191 38 276Q38 360 75 425Q112 490 176 525Q240 560 319 560Q398 560 462 525Q526 490 563 425Q600 360 600 276Q600 192 562 127Q524 62 458.50 26.50Q393-9 314-9M314 90Q358 90 396.50 111Q435 132 459 174Q483 216 483 276Q483 336 460 377.50Q437 419 399 440Q361 461 317 461Q273 461 235.50 440Q198 419 176 377.50Q154 336 154 276Q154 187 199.50 138.50Q245 90 314 90Z"  horiz-adv-x="638" vert-adv-y="1000"  />

      
      <glyph glyph-name="uni70" unicode="&#x70;" d="M189 470Q218 508 268 534Q318 560 381 560Q453 560 512.50 524.50Q572 489 606 425Q640 361 640 278Q640 195 606 129.50Q572 64 512.50 27.50Q453-9 381-9Q318-9 269 16.50Q220 42 189 80L189-262L75-262L75 551L189 551L189 470M524 278Q524 335 500.50 376.50Q477 418 438.50 439.50Q400 461 356 461Q313 461 274.50 439Q236 417 212.50 375Q189 333 189 276Q189 219 212.50 176.50Q236 134 274.50 112Q313 90 356 90Q400 90 438.50 112.50Q477 135 500.50 178Q524 221 524 278Z"  horiz-adv-x="678" vert-adv-y="1000"  />

      
      <glyph glyph-name="uni71" unicode="&#x71;" d="M37 278Q37 361 71.50 425Q106 489 165.50 524.50Q225 560 298 560Q362 560 411.50 534Q461 508 488 471L488 551L603 551L603-262L488-262L488 80Q461 43 410 17Q359-9 294-9Q223-9 164.50 27.50Q106 64 71.50 129.50Q37 195 37 278M488 276Q488 333 464.50 375Q441 417 403 439Q365 461 321 461Q277 461 239 439.50Q201 418 177.50 376.50Q154 335 154 278Q154 221 177.50 178Q201 135 239.50 112.50Q278 90 321 90Q365 90 403 112Q441 134 464.50 176.50Q488 219 488 276Z"  horiz-adv-x="678" vert-adv-y="1000"  />

      
      <glyph glyph-name="uni72" unicode="&#x72;" d="M189 471Q214 513 255.50 536.50Q297 560 354 560L354 442L325 442Q258 442 223.50 408Q189 374 189 290L189 0L75 0L75 551L189 551L189 471Z"  horiz-adv-x="384" vert-adv-y="1000"  />

      
      <glyph glyph-name="uni73" unicode="&#x73;" d="M275-9Q210-9 158.50 14.50Q107 38 77 78.50Q47 119 45 169L163 169Q166 134 196.50 110.50Q227 87 273 87Q321 87 347.50 105.50Q374 124 374 153Q374 184 344.50 199Q315 214 251 232Q189 249 150 265Q111 281 82.50 314Q54 347 54 401Q54 445 80 481.50Q106 518 154.50 539Q203 560 266 560Q360 560 417.50 512.50Q475 465 479 383L365 383Q362 420 335 442Q308 464 262 464Q217 464 193 447Q169 430 169 402Q169 380 185 365Q201 350 224 341.50Q247 333 292 320Q352 304 390.50 287.50Q429 271 457 239Q485 207 486 154Q486 107 460 70Q434 33 386.50 12Q339-9 275-9Z"  horiz-adv-x="534" vert-adv-y="1000"  />

      
      <glyph glyph-name="uni74" unicode="&#x74;" d="M208 458L208 153Q208 122 222.50 108.50Q237 95 272 95L342 95L342 0L252 0Q175 0 134 36Q93 72 93 153L93 458L28 458L28 551L93 551L93 688L208 688L208 551L342 551L342 458L208 458Z"  horiz-adv-x="372" vert-adv-y="1000"  />

      
      <glyph glyph-name="uni75" unicode="&#x75;" d="M574 551L574 0L460 0L460 65Q433 31 389.50 11.50Q346-8 297-8Q232-8 180.50 19Q129 46 99.50 99Q70 152 70 227L70 551L183 551L183 244Q183 170 220 130.50Q257 91 321 91Q385 91 422.50 130.50Q460 170 460 244L460 551L574 551Z"  horiz-adv-x="649" vert-adv-y="1000"  />

      
      <glyph glyph-name="uni76" unicode="&#x76;" d="M288 102L444 551L565 551L355 0L219 0L10 551L132 551L288 102Z"  horiz-adv-x="576" vert-adv-y="1000"  />

      
      <glyph glyph-name="uni77" unicode="&#x77;" d="M815 551L644 0L524 0L413 407L302 0L182 0L10 551L126 551L241 108L358 551L477 551L589 110L703 551L815 551Z"  horiz-adv-x="825" vert-adv-y="1000"  />

      
      <glyph glyph-name="uni78" unicode="&#x78;" d="M311 279L489 0L360 0L241 187L129 0L10 0L188 271L10 551L139 551L258 364L370 551L489 551L311 279Z"  horiz-adv-x="499" vert-adv-y="1000"  />

      
      <glyph glyph-name="uni79" unicode="&#x79;" d="M571 551L233-259L115-259L227 9L10 551L137 551L292 131L453 551L571 551Z"  horiz-adv-x="582" vert-adv-y="1000"  />

      
      <glyph glyph-name="uni7a" unicode="&#x7a;" d="M176 93L426 93L426 0L44 0L44 93L295 458L44 458L44 551L426 551L426 458L176 93Z"  horiz-adv-x="471" vert-adv-y="1000"  />

      
      <glyph glyph-name="uni7b" unicode="&#x7b;" d="M126 417Q174 422 199.50 446Q225 470 225 509Q225 545 217 641Q208 731 208 785Q208 856 249.50 896Q291 936 359 936L426 936L426 837L382 837Q350 837 334.50 822.50Q319 808 319 776Q319 752 322 712Q325 672 326 655Q335 563 335 505Q335 454 309.50 420Q284 386 231 375L231 373Q284 362 309.50 328Q335 294 335 243Q335 185 326 93Q325 76 322 36Q319-4 319-28Q319-60 334.50-74.50Q350-89 382-89L426-89L426-188L359-188Q291-188 249.50-148Q208-108 208-37Q208 17 217 107Q225 203 225 239Q225 278 199.50 302Q174 326 126 331L126 417Z"  horiz-adv-x="516" vert-adv-y="1000"  />

      
      <glyph glyph-name="uni7c" unicode="&#x7c;" d="M219-113L105-113L105 801L219 801L219-113Z"  horiz-adv-x="324" vert-adv-y="1000"  />

      
      <glyph glyph-name="uni7d" unicode="&#x7d;" d="M390 331Q342 326 316.50 302Q291 278 291 239Q291 203 299 107Q308 17 308-37Q308-108 266.50-148Q225-188 157-188L90-188L90-89L134-89Q166-89 181.50-74.50Q197-60 197-28Q197-4 194 36Q191 76 190 93Q181 185 181 243Q181 294 206.50 328Q232 362 285 373L285 375Q232 386 206.50 420Q181 454 181 505Q181 563 190 655Q191 672 194 712Q197 752 197 776Q197 808 181.50 822.50Q166 837 134 837L90 837L90 936L157 936Q225 936 266.50 896Q308 856 308 785Q308 731 299 641Q291 545 291 509Q291 470 316.50 446Q342 422 390 417L390 331Z"  horiz-adv-x="516" vert-adv-y="1000"  />

      
      <glyph glyph-name="uni7e" unicode="&#x7e;" d="M36 238Q51 322 92 362.50Q133 403 195 403Q223 403 244.50 394Q266 385 294 367Q319 352 333.50 345Q348 338 366 338Q391 338 410.50 354.50Q430 371 434 401L517 401Q502 317 460.50 276.50Q419 236 357 236Q329 236 308 245Q287 254 259 272Q237 287 221 294Q205 301 187 301Q161 301 141.50 284.50Q122 268 118 238L36 238Z"  horiz-adv-x="553" vert-adv-y="1000"  />

      
      <glyph glyph-name="unia1" unicode="&#xa1;" d="M161 567Q191 567 212 546Q233 525 233 494Q233 463 212 442Q191 421 161 421Q130 421 109 442Q88 463 88 494Q88 525 109 546Q130 567 161 567M110 350L205 350L218-135L97-135L110 350Z"  horiz-adv-x="321" vert-adv-y="1000"  />

      
      <glyph glyph-name="unia2" unicode="&#xa2;" d="M329 92Q383 92 415 113.50Q447 135 459 174L565 174Q557 104 502 56Q447 8 361-1L361-88L296-88L296-1Q185 9 125.50 81Q66 153 66 259Q66 365 125.50 437.50Q185 510 296 520L296 607L361 607L361 520Q447 511 502 463Q557 415 565 345L459 345Q447 384 415 405.50Q383 427 329 427Q258 427 216 382Q174 337 174 259Q174 181 216 136.50Q258 92 329 92Z"  horiz-adv-x="690" vert-adv-y="1000"  />

      
      <glyph glyph-name="unia3" unicode="&#xa3;" d="M558 91L558-2L95-2L75 60Q117 105 137 149.50Q157 194 157 260Q157 280 152 302L42 302L42 381L127 381Q106 444 106 503Q106 570 135 619Q164 668 215 694.50Q266 721 333 721Q440 721 495 661Q550 601 552 508L448 508Q448 562 420 593.50Q392 625 333 625Q279 625 246.50 594Q214 563 214 497Q214 468 220 441Q226 414 237 381L431 381L431 302L260 302Q265 279 265 259Q265 162 198 91L558 91Z"  horiz-adv-x="646" vert-adv-y="1000"  />

      
      <glyph glyph-name="unia4" unicode="&#xa4;" d="M460 377Q460 317 429 274L488 215L438 164L376 225Q332 199 272 199Q215 199 171 224L111 164L60 215L118 274Q89 317 89 377Q89 439 120 482L60 541L111 592L173 530Q218 555 274 555Q331 555 376 530L438 592L488 541L429 482Q460 437 460 377M272 270Q310 270 337.50 298.50Q365 327 365 377Q365 428 338 456.50Q311 485 273 485Q235 485 209 456.50Q183 428 183 377Q183 326 208.50 298Q234 270 272 270Z"  horiz-adv-x="548" vert-adv-y="1000"  />

      
      <glyph glyph-name="unia5" unicode="&#xa5;" d="M434 395L560 395L560 313L391 311L360 252L360 222L560 222L560 140L360 140L360 0L246 0L246 140L46 140L46 222L246 222L246 252L215 311L46 313L46 395L171 395L15 695L142 695L302 356L462 695L590 695L434 395Z"  horiz-adv-x="605" vert-adv-y="1000"  />

      
      <glyph glyph-name="unia6" unicode="&#xa6;" d="M105 801L219 801L219 413L105 413L105 801M219-113L105-113L105 275L219 275L219-113Z"  horiz-adv-x="324" vert-adv-y="1000"  />

      
      <glyph glyph-name="unia7" unicode="&#xa7;" d="M415 84Q458 59 481 28.50Q504-2 504-46Q504-91 478-129Q452-167 403.50-189.50Q355-212 290-212Q197-212 138.50-168.50Q80-125 80-47L194-47Q197-87 221-110Q245-133 290-133Q338-133 364-113.50Q390-94 390-56Q390-33 376.50-16.50Q363 0 330.50 16.50Q298 33 233 56Q135 91 88 134Q41 177 41 244Q41 298 72.50 340Q104 382 164 404Q121 429 97.50 459.50Q74 490 74 534Q74 579 100 617Q126 655 174.50 677.50Q223 700 288 700Q381 700 439.50 656.50Q498 613 498 535L384 535Q381 575 357 598Q333 621 288 621Q240 621 214 601.50Q188 582 188 544Q188 521 201.50 504.50Q215 488 247.50 471.50Q280 455 345 432Q443 397 490 354Q537 311 537 244Q537 191 506.50 150Q476 109 415 84M158 244Q158 201 194.50 170.50Q231 140 291 140Q350 140 385 170Q420 200 420 244Q420 288 383.50 318Q347 348 288 348Q229 348 193.50 318Q158 288 158 244Z"  horiz-adv-x="578" vert-adv-y="1000"  />

      
      <glyph glyph-name="unia8" unicode="&#xa8;" d="M70 620Q45 620 27.50 637.50Q10 655 10 680Q10 705 27.50 722.50Q45 740 70 740Q95 740 112.50 722.50Q130 705 130 680Q130 655 112.50 637.50Q95 620 70 620M242 620Q217 620 199.50 637.50Q182 655 182 680Q182 705 199.50 722.50Q217 740 242 740Q267 740 284.50 722.50Q302 705 302 680Q302 655 284.50 637.50Q267 620 242 620Z"  horiz-adv-x="312" vert-adv-y="1000"  />

      
      <glyph glyph-name="unia9" unicode="&#xa9;" d="M395 704Q497 704 576 658.50Q655 613 699 532Q743 451 743 348Q743 245 699 163.50Q655 82 576 36.50Q497-9 395-9Q293-9 213.50 36.50Q134 82 90 163.50Q46 245 46 348Q46 451 90 532Q134 613 213.50 658.50Q293 704 395 704M395 658Q304 658 236.50 620Q169 582 132.50 511.50Q96 441 96 348Q96 255 132.50 185Q169 115 236.50 76Q304 37 395 37Q485 37 552.50 76Q620 115 656.50 185Q693 255 693 348Q693 441 656.50 511.50Q620 582 553 620Q486 658 395 658M392 578Q331 578 281 549.50Q231 521 202.50 469Q174 417 174 349Q174 281 203 228.50Q232 176 281.50 147.50Q331 119 392 119Q468 119 523 159.50Q578 200 597 266L493 266Q480 234 456 217Q432 200 392 200Q339 200 307 238.50Q275 277 275 349Q275 421 307 459Q339 497 392 497Q430 497 456.50 480Q483 463 493 431L597 431Q578 501 524 539.50Q470 578 392 578Z"  horiz-adv-x="789" vert-adv-y="1000"  />

      
      <glyph glyph-name="uniaa" unicode="&#xaa;" d="M31 530Q31 582 53.50 622.50Q76 663 114.50 686Q153 709 199 709Q242 709 274 694Q306 679 325 655L325 703L414 703L414 353L325 353L325 399Q308 376 276 361.50Q244 347 202 347Q154 347 115 370.50Q76 394 53.50 436Q31 478 31 530M123 529Q123 477 153 446.50Q183 416 224 416Q266 416 295.50 446Q325 476 325 528Q325 580 295.50 610Q266 640 224 640Q183 640 153 610.50Q123 581 123 529Z"  horiz-adv-x="456" vert-adv-y="1000"  />

      
      <glyph glyph-name="uniab" unicode="&#xab;" d="M137 120L45 295L137 470L247 470L151 295L247 120L137 120M329 120L237 295L329 470L439 470L343 295L439 120L329 120Z"  horiz-adv-x="489" vert-adv-y="1000"  />

      
      <glyph glyph-name="uniac" unicode="&#xac;" d="M605 435L605 208L491 208L491 346L37 346L37 435L605 435Z"  horiz-adv-x="649" vert-adv-y="1000"  />

      
      <glyph glyph-name="uniad" unicode="&#xad;" d="M498 410L498 314L87 314L87 410L498 410Z"  horiz-adv-x="585" vert-adv-y="1000"  />

      
      <glyph glyph-name="uniae" unicode="&#xae;" d="M259 705Q319 705 366.50 678Q414 651 440.50 603.50Q467 556 467 496Q467 436 440.50 388.50Q414 341 366.50 314Q319 287 259 287Q199 287 151.50 314Q104 341 77 388.50Q50 436 50 496Q50 556 77 603.50Q104 651 151.50 678Q199 705 259 705M259 333Q331 333 374.50 378Q418 423 418 496Q418 569 374.50 614Q331 659 259 659Q186 659 143 614Q100 569 100 496Q100 423 143 378Q186 333 259 333M351 536Q351 514 340 497.50Q329 481 310 473L363 391L287 391L243 466L236 466L236 391L173 391L173 606L274 606Q309 606 330 586.50Q351 567 351 536M236 517L270 517Q278 517 283.50 521.50Q289 526 289 534Q289 542 283.50 546Q278 550 270 550L236 550L236 517Z"  horiz-adv-x="517" vert-adv-y="1000"  />

      
      <glyph glyph-name="uniaf" unicode="&#xaf;" d="M376 720L376 635L10 635L10 720L376 720Z"  horiz-adv-x="386" vert-adv-y="1000"  />

      
      <glyph glyph-name="unib0" unicode="&#xb0;" d="M28 525Q28 605 80 653.50Q132 702 214 702Q267 702 309 680.50Q351 659 375 618.50Q399 578 399 525Q399 472 374.50 431.50Q350 391 307 369Q264 347 211 347Q129 347 78.50 396Q28 445 28 525M308 525Q308 578 280 607.50Q252 637 212 637Q173 637 145.50 607.50Q118 578 118 525Q118 471 144.50 442.50Q171 414 211 414Q251 414 279.50 443Q308 472 308 525Z"  horiz-adv-x="427" vert-adv-y="1000"  />

      
      <glyph glyph-name="unib1" unicode="&#xb1;" d="M412 372L412 223L613 223L613 127L104 127L104 223L306 223L306 372L104 372L104 468L306 468L306 621L412 621L412 468L613 468L613 372L412 372Z"  horiz-adv-x="717" vert-adv-y="1000"  />

      
      <glyph glyph-name="unib2" unicode="&#xb2;" d="M298 424L298 352L29 352L29 418L137 497Q170 523 186.50 545Q203 567 203 593Q203 616 190.50 629.50Q178 643 159 643Q141 643 130 633Q119 623 117 605L27 605Q29 653 64.50 682Q100 711 162 711Q203 711 233.50 695Q264 679 280.50 653Q297 627 297 597Q297 561 275.50 533Q254 505 203 471L130 424L298 424Z"  horiz-adv-x="340" vert-adv-y="1000"  />

      
      <glyph glyph-name="unib3" unicode="&#xb3;" d="M22 609Q26 654 65 682.50Q104 711 166 711Q204 711 236.50 697Q269 683 287.50 659Q306 635 306 606Q306 576 289 556.50Q272 537 245 529L245 527Q273 517 291 496.50Q309 476 309 446Q309 404 267.50 375.50Q226 347 162 347Q98 347 59 376.50Q20 406 18 457L106 457Q110 435 124 424Q138 413 161 413Q184 413 198.50 425Q213 437 213 458Q213 478 198 489.50Q183 501 159 501L122 501L122 559L156 559Q181 559 195.50 570Q210 581 210 601Q210 621 196.50 632.50Q183 644 159 644Q117 644 107 609L22 609Z"  horiz-adv-x="342" vert-adv-y="1000"  />

      
      <glyph glyph-name="unib4" unicode="&#xb4;" d="M231 699L10 590L10 674L231 796L231 699Z"  horiz-adv-x="241" vert-adv-y="1000"  />

      
      <glyph glyph-name="unib5" unicode="&#xb5;" d="M579 551L579 0L465 0L465 87Q438 40 392.50 16Q347-8 289-8Q229-8 188 23L188-262L75-262L75 551L188 551L188 243Q188 169 225 129.50Q262 90 326 90Q390 90 427.50 129.50Q465 169 465 243L465 551L579 551Z"  horiz-adv-x="654" vert-adv-y="1000"  />

      
      <glyph glyph-name="unib6" unicode="&#xb6;" d="M555 0L454 0L454 606L387 606L387 0L286 0L286 282L272 282Q154 282 94.50 339.50Q35 397 35 488Q35 579 95 637Q155 695 272 695L555 695L555 0Z"  horiz-adv-x="630" vert-adv-y="1000"  />

      
      <glyph glyph-name="unib7" unicode="&#xb7;" d="M125 262Q94 262 73 283Q52 304 52 335Q52 366 73 387Q94 408 125 408Q155 408 176 387Q197 366 197 335Q197 304 176 283Q155 262 125 262Z"  horiz-adv-x="244" vert-adv-y="1000"  />

      
      <glyph glyph-name="unib8" unicode="&#xb8;" d="M139-48Q197-48 233-75.50Q269-103 269-153Q269-203 233-232.50Q197-262 142-262L10-262L10-190L119-190Q147-190 161-182Q175-174 175-153Q175-132 161-124Q147-116 119-116L64-116L64 7L139 7L139-48Z"  horiz-adv-x="279" vert-adv-y="1000"  />

      
      <glyph glyph-name="unib9" unicode="&#xb9;" d="M20 636L20 704L163 704L163 352L74 352L74 636L20 636Z"  horiz-adv-x="209" vert-adv-y="1000"  />

      
      <glyph glyph-name="uniba" unicode="&#xba;" d="M31 528Q31 582 56 623Q81 664 124.50 686.50Q168 709 222 709Q276 709 319.50 687Q363 665 388 623.50Q413 582 413 528Q413 475 387.50 433.50Q362 392 318 369.50Q274 347 220 347Q166 347 123 369.50Q80 392 55.50 433Q31 474 31 528M321 527Q321 580 291.50 610Q262 640 221 640Q180 640 151.50 610.50Q123 581 123 527Q123 475 151 446Q179 417 220 417Q261 417 291 446.50Q321 476 321 527Z"  horiz-adv-x="444" vert-adv-y="1000"  />

      
      <glyph glyph-name="unibb" unicode="&#xbb;" d="M145 295L50 470L159 470L252 295L159 120L50 120L145 295M337 295L242 470L351 470L444 295L351 120L242 120L337 295Z"  horiz-adv-x="489" vert-adv-y="1000"  />

      
      <glyph glyph-name="unibc" unicode="&#xbc;" d="M34 636L34 704L177 704L177 352L88 352L88 636L34 636M553 696L171 0L63 0L446 696L553 696M643 67L598 67L598 0L509 0L509 67L323 67L323 117L474 353L598 353L598 123L643 123L643 67M511 285L412 123L511 123L511 285Z"  horiz-adv-x="682" vert-adv-y="1000"  />

      
      <glyph glyph-name="unibd" unicode="&#xbd;" d="M88 636L34 636L34 704L177 704L177 352L88 352L88 636M542 696L171 0L63 0L434 696L542 696M657 71L657-1L388-1L388 65L496 144Q529 170 545.50 192Q562 214 562 240Q562 263 549.50 276.50Q537 290 518 290Q500 290 489 280Q478 270 476 252L386 252Q388 300 423.50 329Q459 358 521 358Q562 358 592.50 342Q623 326 639.50 300Q656 274 656 244Q656 208 634.50 180Q613 152 562 118L489 71L657 71Z"  horiz-adv-x="701" vert-adv-y="1000"  />

      
      <glyph glyph-name="unibe" unicode="&#xbe;" d="M37 609Q41 654 80 682.50Q119 711 181 711Q219 711 251.50 697Q284 683 302.50 659Q321 635 321 606Q321 576 304 556.50Q287 537 260 529L260 527Q288 517 306 496.50Q324 476 324 446Q324 404 282.50 375.50Q241 347 177 347Q113 347 74 376.50Q35 406 33 457L121 457Q125 435 139 424Q153 413 176 413Q199 413 213.50 425Q228 437 228 458Q228 478 213 489.50Q198 501 174 501L137 501L137 559L171 559Q196 559 210.50 570Q225 581 225 601Q225 621 211.50 632.50Q198 644 174 644Q132 644 122 609L37 609M648 696L246 0L139 0L541 696L648 696M716 67L671 67L671 0L582 0L582 67L396 67L396 117L547 353L671 353L671 123L716 123L716 67M584 285L485 123L584 123L584 285Z"  horiz-adv-x="742" vert-adv-y="1000"  />

      
      <glyph glyph-name="unibf" unicode="&#xbf;" d="M340 561Q371 561 392 540Q413 519 413 488Q413 457 392 436Q371 415 340 415Q310 415 289 436Q268 457 268 488Q268 519 289 540Q310 561 340 561M276-151Q174-151 112.50-95Q51-39 51 58Q51 159 115 210Q179 261 285 261L289 340L388 340L393 183L360 183Q263 183 211.50 157Q160 131 160 58Q160 5 190.50-25Q221-55 275-55Q329-55 360-26Q391 3 391 55L498 55Q498-5 471-52Q444-99 393.50-125Q343-151 276-151Z"  horiz-adv-x="538" vert-adv-y="1000"  />

      
      <glyph glyph-name="unic0" unicode="&#xc0;" d="M494 142L203 142L153 0L34 0L283 696L415 696L664 0L544 0L494 142M462 235L349 558L235 235L462 235M452 819L452 735L231 844L231 941L452 819Z"  horiz-adv-x="697" vert-adv-y="1000"  />

      
      <glyph glyph-name="unic1" unicode="&#xc1;" d="M494 142L203 142L153 0L34 0L283 696L415 696L664 0L544 0L494 142M462 235L349 558L235 235L462 235M452 844L231 735L231 819L452 941L452 844Z"  horiz-adv-x="697" vert-adv-y="1000"  />

      
      <glyph glyph-name="unic2" unicode="&#xc2;" d="M494 142L203 142L153 0L34 0L283 696L415 696L664 0L544 0L494 142M462 235L349 558L235 235L462 235M349 821L206 735L206 824L349 907L492 824L492 735L349 821Z"  horiz-adv-x="697" vert-adv-y="1000"  />

      
      <glyph glyph-name="unic3" unicode="&#xc3;" d="M494 142L203 142L153 0L34 0L283 696L415 696L664 0L544 0L494 142M462 235L349 558L235 235L462 235M186 753Q194 811 224 840.50Q254 870 299 870Q318 870 332 864Q346 858 366 846Q381 836 391.50 831Q402 826 415 826Q432 826 443.50 836.50Q455 847 458 868L522 868Q514 810 484 780.50Q454 751 409 751Q390 751 375 757.50Q360 764 342 776Q324 787 314.50 791.50Q305 796 293 796Q276 796 264.50 785Q253 774 250 753L186 753Z"  horiz-adv-x="697" vert-adv-y="1000"  />

      
      </font>
</defs>
</svg>
