<?xml version="1.0" encoding="utf-8"?>
<svg viewBox="0 0 500 500" xmlns="http://www.w3.org/2000/svg" xmlns:xlink="http://www.w3.org/1999/xlink">
  <defs>
    <radialGradient gradientTransform="matrix(0, -1.98198, 1.8439, 0, -1023.066284, 458.017365)" gradientUnits="userSpaceOnUse" r="65" cy="578.088" cx="158.429" id="c" xlink:href="#a"/>
    <linearGradient id="a">
      <stop stop-color="#fd5" offset="0"/>
      <stop stop-color="#fd5" offset="0.1"/>
      <stop stop-color="#ff543e" offset="0.5"/>
      <stop stop-color="#c837ab" offset="1"/>
    </linearGradient>
    <radialGradient gradientTransform="matrix(0.17394, 0.86872, -3.5818, 0.71718, 1656.683716, -454.479645)" gradientUnits="userSpaceOnUse" r="65" cy="473.455" cx="147.694" id="d" xlink:href="#b"/>
    <linearGradient id="b">
      <stop stop-color="#3771c8" offset="0"/>
      <stop offset="0.128" stop-color="#3771c8"/>
      <stop stop-opacity="0" stop-color="#60f" offset="1"/>
    </linearGradient>
  </defs>
  <g transform="matrix(3.845431, 0, 0, 3.846479, -32.042267, -15.435922)">
    <path d="M 73.366 4.013 C 46.224 4.013 38.286 4.041 36.743 4.169 C 31.173 4.632 27.707 5.509 23.931 7.389 C 21.021 8.834 18.726 10.509 16.461 12.857 C 12.336 17.139 9.836 22.407 8.931 28.669 C 8.491 31.709 8.363 32.329 8.337 47.857 C 8.327 53.033 8.337 59.845 8.337 68.982 C 8.337 96.102 8.367 104.032 8.497 105.572 C 8.947 110.992 9.797 114.402 11.597 118.132 C 15.037 125.272 21.607 130.632 29.347 132.632 C 32.027 133.322 34.987 133.702 38.787 133.882 C 40.397 133.952 56.807 134.002 73.227 134.002 C 89.647 134.002 106.067 133.982 107.637 133.902 C 112.037 133.695 114.592 133.352 117.417 132.622 C 125.185 130.63 131.679 125.314 135.167 118.092 C 136.932 114.452 137.827 110.912 138.232 105.775 C 138.32 104.655 138.357 86.798 138.357 68.965 C 138.357 51.129 138.317 33.305 138.229 32.185 C 137.819 26.965 136.924 23.455 135.102 19.745 C 133.607 16.708 131.947 14.44 129.537 12.121 C 125.237 8.013 119.977 5.513 113.708 4.609 C 110.671 4.17 110.066 4.04 94.526 4.013 Z" fill="url(#c)" style=""/>
    <path d="M 73.366 4.013 C 46.224 4.013 38.286 4.041 36.743 4.169 C 31.173 4.632 27.707 5.509 23.931 7.389 C 21.021 8.834 18.726 10.509 16.461 12.857 C 12.336 17.139 9.836 22.407 8.931 28.669 C 8.491 31.709 8.363 32.329 8.337 47.857 C 8.327 53.033 8.337 59.845 8.337 68.982 C 8.337 96.102 8.367 104.032 8.497 105.572 C 8.947 110.992 9.797 114.402 11.597 118.132 C 15.037 125.272 21.607 130.632 29.347 132.632 C 32.027 133.322 34.987 133.702 38.787 133.882 C 40.397 133.952 56.807 134.002 73.227 134.002 C 89.647 134.002 106.067 133.982 107.637 133.902 C 112.037 133.695 114.592 133.352 117.417 132.622 C 125.185 130.63 131.679 125.314 135.167 118.092 C 136.932 114.452 137.827 110.912 138.232 105.775 C 138.32 104.655 138.357 86.798 138.357 68.965 C 138.357 51.129 138.317 33.305 138.229 32.185 C 137.819 26.965 136.924 23.455 135.102 19.745 C 133.607 16.708 131.947 14.44 129.537 12.121 C 125.237 8.013 119.977 5.513 113.708 4.609 C 110.671 4.17 110.066 4.04 94.526 4.013 Z" fill="url(#d)" style=""/>
    <path d="M 73.336 21.013 C 60.3 21.013 58.664 21.07 53.544 21.303 C 48.434 21.537 44.946 22.346 41.894 23.533 C 38.737 24.759 36.059 26.399 33.391 29.068 C 30.721 31.736 29.081 34.414 27.851 37.57 C 26.661 40.623 25.851 44.112 25.621 49.22 C 25.393 54.34 25.333 55.977 25.333 69.013 C 25.333 82.049 25.391 83.68 25.623 88.8 C 25.858 93.91 26.667 97.398 27.853 100.45 C 29.08 103.607 30.72 106.285 33.389 108.953 C 36.056 111.623 38.734 113.267 41.889 114.493 C 44.943 115.68 48.432 116.489 53.541 116.723 C 58.661 116.956 60.296 117.013 73.331 117.013 C 86.368 117.013 87.999 116.956 93.119 116.723 C 98.229 116.489 101.721 115.68 104.775 114.493 C 107.931 113.267 110.605 111.623 113.272 108.953 C 115.942 106.285 117.582 103.607 118.812 100.451 C 119.992 97.398 120.802 93.909 121.042 88.801 C 121.272 83.681 121.332 82.049 121.332 69.013 C 121.332 55.977 121.272 54.341 121.042 49.221 C 120.802 44.111 119.992 40.623 118.812 37.571 C 117.582 34.414 115.942 31.736 113.272 29.068 C 110.602 26.398 107.932 24.758 104.772 23.533 C 101.712 22.346 98.222 21.537 93.112 21.303 C 87.992 21.07 86.362 21.013 73.322 21.013 Z M 69.03 29.663 C 70.308 29.661 71.734 29.663 73.336 29.663 C 86.152 29.663 87.671 29.709 92.732 29.939 C 97.412 30.153 99.952 30.935 101.644 31.592 C 103.884 32.462 105.481 33.502 107.16 35.182 C 108.84 36.862 109.88 38.462 110.752 40.702 C 111.409 42.392 112.192 44.932 112.405 49.612 C 112.635 54.672 112.685 56.192 112.685 69.002 C 112.685 81.812 112.635 83.332 112.405 88.392 C 112.191 93.072 111.409 95.612 110.752 97.302 C 109.882 99.542 108.84 101.137 107.16 102.816 C 105.48 104.496 103.885 105.536 101.644 106.406 C 99.954 107.066 97.412 107.846 92.732 108.06 C 87.672 108.29 86.152 108.34 73.336 108.34 C 60.519 108.34 59 108.29 53.94 108.06 C 49.26 107.844 46.72 107.062 45.027 106.405 C 42.787 105.535 41.187 104.495 39.507 102.815 C 37.827 101.135 36.787 99.539 35.915 97.298 C 35.258 95.608 34.475 93.068 34.262 88.388 C 34.032 83.328 33.986 81.808 33.986 68.99 C 33.986 56.172 34.032 54.66 34.262 49.6 C 34.476 44.92 35.258 42.38 35.915 40.688 C 36.785 38.448 37.827 36.848 39.507 35.168 C 41.187 33.488 42.787 32.448 45.027 31.576 C 46.719 30.916 49.26 30.136 53.94 29.921 C 58.368 29.721 60.084 29.661 69.03 29.651 Z M 98.958 37.633 C 94.524 37.633 91.752 42.433 93.969 46.273 C 96.186 50.113 101.729 50.113 103.946 46.273 C 104.452 45.397 104.718 44.403 104.718 43.391 C 104.718 40.211 102.138 37.631 98.958 37.631 Z M 73.336 44.363 C 59.723 44.363 48.686 55.4 48.686 69.013 C 48.686 82.626 59.723 93.658 73.336 93.658 C 86.949 93.658 97.983 82.626 97.983 69.013 C 97.983 55.4 86.948 44.363 73.335 44.363 Z M 73.336 53.013 C 82.172 53.013 89.336 60.176 89.336 69.013 C 89.336 77.849 82.172 85.013 73.336 85.013 C 64.499 85.013 57.336 77.849 57.336 69.013 C 57.336 60.176 64.499 53.013 73.336 53.013 Z" fill="#fff" style=""/>
  </g>
</svg>