<?xml version="1.0" encoding="utf-8"?>
<svg viewBox="0 0 500 500" xmlns="http://www.w3.org/2000/svg">
  <g transform="matrix(0.023273, 0, 0, -0.023273, -1.258662, 501.592896)" fill="#000000" stroke="none" style="">
    <rect x="3639.052" y="-17388.254" width="15250.89" height="12865.637" style="fill: rgb(255, 255, 255);" transform="matrix(1, 0, 0, -1, 0, 0)"/>
    <path d="M 10306.731 21544.94 C 9667.68 21512.84 9053.71 21431.586 8475.856 21303.185 C 6619.9 20890.897 4937.502 20015.161 3535.002 18730.147 C 3339.374 18551.589 2935.077 18142.31 2776.568 17963.753 C 1133.295 16110.965 194.282 13825.826 63.863 11358.117 C 50.822 11112.349 50.822 10509.466 63.863 10264.701 C 195.285 7793.982 1132.292 5512.856 2776.568 3659.065 C 3039.411 3363.141 3505.908 2907.718 3825.935 2634.865 C 6150.394 651.67 9189.145 -241.119 12232.911 164.147 C 14957.655 526.278 17456.673 1941.7 19184.217 4100.444 C 20347.951 5553.985 21106.385 7263.325 21401.331 9096.05 C 21600.972 10331.911 21581.91 11622.944 21346.154 12842.755 C 20871.631 15306.451 19559.421 17511.339 17615.182 19113.344 C 15989.967 20451.524 13988.545 21286.132 11891.817 21499.799 C 11450.4 21543.937 10709.022 21565.003 10306.731 21544.94 Z M 7136.558 16700.807 C 7427.492 16640.619 7637.165 16532.281 7824.767 16344.695 C 8043.468 16125.008 8159.842 15866.2 8188.935 15534.163 C 8238.093 14949.336 7899.005 14431.719 7339.209 14238.114 C 7148.597 14171.907 7042.256 14156.86 6780.415 14156.86 C 6580.775 14157.863 6535.63 14160.873 6447.347 14179.932 C 5901.595 14298.302 5535.421 14657.424 5424.063 15185.072 C 5398.983 15304.445 5398.983 15577.297 5424.063 15696.67 C 5508.334 16094.914 5739.074 16395.855 6097.223 16576.419 C 6228.645 16642.625 6443.334 16702.813 6624.916 16723.879 C 6717.213 16734.914 7044.262 16719.867 7136.558 16700.807 Z M 14560.38 13285.137 C 15184.382 13196.861 15662.918 12973.162 16064.205 12581.94 C 16211.678 12438.492 16286.92 12347.207 16408.309 12165.639 C 16719.307 11700.185 16904.903 11090.28 16958.073 10365.014 C 16964.093 10275.735 16968.106 9392.978 16968.106 7950.471 L 16968.106 5675.364 L 15729.13 5675.364 L 14490.154 5675.364 L 14490.154 7709.719 C 14490.154 8915.486 14486.142 9802.256 14480.122 9888.526 C 14436.984 10526.519 14249.382 10945.829 13905.278 11170.531 C 13546.125 11405.264 12976.297 11410.28 12581.028 11180.562 C 12239.934 10983.948 11974.081 10603.76 11904.859 10217.554 C 11889.81 10133.29 11887.804 9913.604 11884.794 7900.315 L 11880.781 5675.364 L 10636.79 5675.364 L 9391.795 5675.364 L 9398.817 5818.812 C 9408.85 6018.436 9410.856 13077.488 9400.824 13111.595 L 9393.801 13138.679 L 10637.793 13138.679 L 11881.785 13138.679 L 11883.791 12616.046 L 11886.801 12093.414 L 11946.994 12181.69 C 12393.426 12841.752 12987.332 13205.889 13762.821 13294.165 C 13926.345 13313.224 14400.868 13307.206 14560.38 13285.137 Z M 8029.423 9407.022 L 8029.423 5675.364 L 6790.448 5675.364 L 5551.472 5675.364 L 5551.472 9407.022 L 5551.472 13138.679 L 6790.448 13138.679 L 8029.423 13138.679 L 8029.423 9407.022 Z" style="fill: rgb(12, 102, 194);"/>
  </g>
</svg>